<svg width="548" height="354" viewBox="0 0 548 354" fill="none" xmlns="http://www.w3.org/2000/svg">
<g clip-path="url(#clip0_443_168)">
<path d="M75.7523 40.7055C75.8584 40.1184 76.2311 39.6032 76.814 39.3351C77.4009 39.0545 78.0577 39.1139 78.576 39.4325C78.7206 39.7551 78.8527 40.0737 79.0013 40.3838C79.0267 40.4334 79.048 40.4955 79.061 40.5411C79.3054 41.2823 78.9692 42.113 78.2416 42.445C77.4644 42.8024 76.5389 42.4633 76.182 41.6858C76.0249 41.3592 75.8803 41.0366 75.7398 40.7015" stroke="#663024" stroke-width="1.5" stroke-miterlimit="10"/>
<path d="M99.1331 78.1552C99.0386 77.8487 98.948 77.5297 98.841 77.2191C98.5707 76.3867 99.0141 75.4801 99.8587 75.2133C100.691 74.9426 101.58 75.3943 101.854 76.2143C101.953 76.5498 102.056 76.8728 102.159 77.1959C101.995 77.792 101.556 78.2996 100.927 78.4975C100.281 78.7039 99.5983 78.5533 99.1247 78.1387" stroke="#663024" stroke-width="1.5" stroke-miterlimit="10"/>
<path d="M99.2406 111.875C99.2586 111.605 99.2805 111.322 99.3025 111.039C99.3488 110.295 99.9704 109.735 100.714 109.782C101.271 109.809 101.74 110.194 101.912 110.691C101.959 110.845 101.986 111.019 101.983 111.198C101.97 111.497 101.948 111.78 101.922 112.075C101.61 112.486 101.11 112.753 100.558 112.713C99.9883 112.682 99.503 112.346 99.2491 111.892" stroke="#663024" stroke-width="1.5" stroke-miterlimit="10"/>
<path d="M95.8789 139.91C95.8308 139.674 95.7828 139.438 95.7306 139.214C95.6121 138.596 96.0129 137.993 96.643 137.878C97.2151 137.772 97.7585 138.099 97.9427 138.641C97.9556 138.687 97.9769 138.749 97.9774 138.791C98.017 139.01 98.0692 139.234 98.1173 139.471C97.964 139.905 97.5936 140.241 97.1086 140.333C96.6401 140.417 96.1815 140.256 95.8709 139.935" stroke="#663024" stroke-width="1.5" stroke-miterlimit="10"/>
<path d="M543.562 84.2856C543.608 84.3557 543.655 84.4259 543.701 84.496C543.596 84.3933 543.491 84.2905 543.382 84.2002C542.883 83.736 542.107 83.79 541.63 84.2855C541.207 84.7431 541.181 85.425 541.543 85.8865C541.581 85.9401 541.623 85.9813 541.665 86.0224C541.77 86.1251 541.879 86.2154 541.984 86.3181C541.846 86.2739 541.725 86.1796 541.62 86.0769C538.416 83.1274 534.991 80.8245 531.54 78.5135C528.307 76.3415 525.044 74.1323 521.979 71.3102C522.478 71.3879 523.012 71.2284 523.399 70.8419C523.789 70.4429 523.929 69.8803 523.812 69.3871C526.697 72.0407 529.834 74.1681 533.054 76.3361C536.501 78.6596 540.056 81.0318 543.44 84.1497C543.494 84.1949 543.532 84.2485 543.574 84.2896" stroke="#663024" stroke-width="1.5" stroke-miterlimit="10"/>
<path d="M220.009 145.754C220.315 145.618 220.651 145.56 220.967 145.606C220.654 145.851 220.329 146.091 220.011 146.348C219.513 146.74 219.429 147.472 219.829 147.988C220.17 148.429 220.765 148.551 221.236 148.33C221.315 148.3 221.385 148.253 221.459 148.194C221.772 147.95 222.086 147.706 222.399 147.461C222.358 147.89 222.142 148.303 221.787 148.59C218.957 150.827 217.067 153.657 214.798 156.765C212.546 159.865 209.906 163.226 205.599 166.107C205.529 166.153 205.463 166.187 205.397 166.221C204.661 166.578 203.762 166.33 203.285 165.625C202.774 164.853 202.971 163.812 203.73 163.297C207.566 160.72 209.887 157.794 212.09 154.762C214.29 151.742 216.371 148.573 219.691 145.928C219.786 145.848 219.889 145.784 220.001 145.737" stroke="#663024" stroke-width="1.5" stroke-miterlimit="10"/>
<path d="M236.2 136.548C237.945 135.715 239.751 134.902 241.633 134.071C241.15 134.372 240.948 134.956 241.169 135.469C241.391 135.981 241.962 136.221 242.505 136.078C240.628 136.896 238.85 137.704 237.139 138.521C231.886 141.042 227.343 143.626 222.991 146.864C223.049 146.469 222.949 146.05 222.671 145.712C222.406 145.379 222.026 145.187 221.627 145.142C226.141 141.789 230.836 139.116 236.188 136.544" stroke="#663024" stroke-width="1.5" stroke-miterlimit="10"/>
<path d="M221.191 145.512C221.561 145.562 221.912 145.757 222.164 146.087C222.417 146.417 222.521 146.823 222.483 147.198C222.195 147.408 221.915 147.636 221.638 147.851C221.581 147.901 221.511 147.948 221.445 147.982C221.006 148.186 220.478 148.071 220.166 147.667C219.804 147.206 219.88 146.54 220.329 146.173C220.622 145.95 220.902 145.723 221.195 145.499" stroke="#663024" stroke-width="1.5" stroke-miterlimit="10"/>
<path d="M241.798 133.985C241.798 133.985 241.831 133.968 241.843 133.972C249.878 130.482 260.581 126.885 269.487 124.503C269.187 124.835 269.051 125.302 269.164 125.766C269.276 126.23 269.621 126.575 270.046 126.712C261.256 129.076 250.619 132.64 242.741 136.07C242.679 136.091 242.63 136.117 242.572 136.126C242.621 136.1 242.683 136.079 242.733 136.053C242.733 136.053 242.766 136.036 242.779 136.04C243.332 135.777 243.596 135.13 243.349 134.567C243.106 133.992 242.427 133.746 241.848 134.002C241.786 134.023 241.736 134.048 241.674 134.07C241.711 134.04 241.757 134.027 241.794 133.998" stroke="#663024" stroke-width="1.5" stroke-miterlimit="10"/>
<path d="M241.678 134.058C241.678 134.058 241.773 134.02 241.823 133.994C242.336 133.773 242.945 134.024 243.174 134.553C243.396 135.066 243.186 135.675 242.698 135.905C242.698 135.905 242.682 135.913 242.665 135.922C242.616 135.947 242.57 135.96 242.52 135.986C242.04 136.107 241.514 135.855 241.297 135.371C241.08 134.888 241.257 134.337 241.678 134.058Z" stroke="#663024" stroke-width="1.5" stroke-miterlimit="10"/>
<path d="M270.943 123.923C270.943 123.923 271.104 123.851 271.195 123.825C275.757 122.683 279.861 122.319 283.923 121.913C287.989 121.496 292.03 121.028 296.585 119.691C296.796 119.635 297.008 119.62 297.216 119.659C297.017 119.72 296.818 119.78 296.624 119.828C296.562 119.849 296.499 119.871 296.437 119.892C295.9 120.147 295.612 120.786 295.805 121.387C296.003 122.058 296.705 122.449 297.359 122.259C297.558 122.199 297.752 122.151 297.951 122.091C297.852 122.183 297.741 122.272 297.613 122.327C297.547 122.361 297.485 122.383 297.41 122.4C292.594 123.819 288.354 124.305 284.263 124.715C280.172 125.125 276.238 125.474 271.917 126.556C271.648 126.621 271.365 126.599 271.115 126.519C271.372 126.449 271.612 126.389 271.865 126.332C271.94 126.315 272.006 126.281 272.08 126.263C272.568 126.033 272.832 125.47 272.681 124.91C272.513 124.276 271.89 123.896 271.273 124.057C271.02 124.113 270.776 124.187 270.523 124.244C270.638 124.101 270.782 123.996 270.96 123.915" stroke="#663024" stroke-width="1.5" stroke-miterlimit="10"/>
<path d="M270.176 124.42C270.404 124.355 270.627 124.303 270.868 124.242C271.423 124.103 272.004 124.442 272.159 125.03C272.289 125.528 272.053 126.045 271.611 126.262C271.545 126.296 271.483 126.318 271.421 126.339C271.197 126.391 270.969 126.456 270.746 126.508C270.362 126.371 270.043 126.034 269.931 125.611C269.822 125.176 269.934 124.742 270.197 124.44" stroke="#663024" stroke-width="1.5" stroke-miterlimit="10"/>
<path d="M298.475 119.303C305.589 117.174 314.468 114.273 322.019 110.655C323.995 109.703 325.887 108.71 327.629 107.669C327.446 108.107 327.472 108.627 327.747 109.06C328.009 109.489 328.456 109.73 328.922 109.783C327.093 110.879 325.135 111.906 323.093 112.892C315.331 116.608 306.361 119.534 299.185 121.685C299.559 121.336 299.72 120.794 299.569 120.277C299.418 119.759 298.983 119.398 298.487 119.307" stroke="#663024" stroke-width="1.5" stroke-miterlimit="10"/>
<path d="M297.056 119.855C297.056 119.855 297.167 119.808 297.226 119.799C297.408 119.748 297.59 119.696 297.76 119.64C298.217 119.718 298.628 120.071 298.774 120.56C298.921 121.049 298.772 121.553 298.435 121.873C298.253 121.925 298.07 121.976 297.901 122.032C297.292 122.209 296.661 121.854 296.472 121.241C296.304 120.69 296.56 120.11 297.064 119.872" stroke="#663024" stroke-width="1.5" stroke-miterlimit="10"/>
<path d="M351.104 85.512C351.104 85.512 351.232 85.4566 351.294 85.4351C351.138 85.5781 350.986 85.7086 350.829 85.8516C350.245 86.3815 350.213 87.2961 350.734 87.9056C351.167 88.4038 351.858 88.5294 352.412 88.2657C352.528 88.2063 352.647 88.1344 352.746 88.0419C352.902 87.8989 353.055 87.7685 353.211 87.6255C353.122 87.8176 352.995 87.9977 352.838 88.1407C349.571 91.0932 346.304 94.902 342.742 98.6847C339.164 102.476 335.298 106.258 330.714 109.146C330.664 109.171 330.61 109.209 330.561 109.235C330.3 109.358 330.027 109.394 329.756 109.376C330.029 109.215 330.289 109.051 330.549 108.886C331.135 108.522 331.305 107.735 330.934 107.132C330.591 106.566 329.896 106.37 329.325 106.642C329.28 106.655 329.243 106.685 329.206 106.714C328.95 106.866 328.69 107.031 328.434 107.184C328.555 106.891 328.752 106.623 329.045 106.442C333.267 103.782 336.984 100.201 340.489 96.4689C343.989 92.7491 347.285 88.8944 350.753 85.7443C350.869 85.6433 350.993 85.5589 351.121 85.5035" stroke="#663024" stroke-width="1.5" stroke-miterlimit="10"/>
<path d="M329.051 107.022C329.572 106.775 330.205 106.951 330.522 107.467C330.855 108.017 330.697 108.725 330.16 109.063C329.917 109.219 329.677 109.363 329.438 109.507C329.01 109.466 328.6 109.238 328.347 108.825C328.093 108.412 328.055 107.93 328.229 107.517C328.469 107.373 328.708 107.229 328.948 107.085C328.985 107.056 329.018 107.039 329.063 107.026" stroke="#663024" stroke-width="1.5" stroke-miterlimit="10"/>
<path d="M370.453 69.2326C370.648 69.1433 370.855 69.0995 371.05 69.0932C370.84 69.2326 370.613 69.3805 370.402 69.52C369.874 69.8747 369.732 70.616 370.099 71.1481C370.424 71.6392 371.061 71.8027 371.566 71.5646C371.615 71.5391 371.665 71.5136 371.718 71.4757C371.929 71.3363 372.139 71.1969 372.354 71.045C372.248 71.2872 372.08 71.5092 371.849 71.6696C365.361 76.0574 360.675 80.804 354.214 86.6502C354.458 86.1073 354.376 85.4598 353.96 84.9947C353.544 84.5295 352.907 84.366 352.34 84.5425C358.718 78.7803 363.503 73.8997 370.271 69.326C370.325 69.288 370.391 69.2541 370.441 69.2286" stroke="#663024" stroke-width="1.5" stroke-miterlimit="10"/>
<path d="M353.344 85.6245C352.941 85.1634 352.341 85.0119 351.815 85.188C351.675 85.3224 351.527 85.4404 351.387 85.5749C350.844 86.0628 350.807 86.9069 351.303 87.4668C351.707 87.9279 352.343 88.0499 352.864 87.8032C352.963 87.7523 353.071 87.6763 353.165 87.5963C353.305 87.4619 353.453 87.3439 353.593 87.2094C353.825 86.704 353.739 86.0691 353.344 85.6245Z" stroke="#663024" stroke-width="1.5" stroke-miterlimit="10"/>
<path d="M389.083 59.2659C390.467 58.6068 391.852 57.9477 393.22 57.2972C392.846 57.6461 392.727 58.1877 392.948 58.6591C393.168 59.1305 393.665 59.387 394.171 59.315C392.803 59.9656 391.423 60.6121 390.038 61.2712C390.021 61.2797 390.005 61.2882 389.988 61.2967C384.132 64.1067 378.318 67.041 373.198 70.3917C373.369 69.9909 373.347 69.5007 373.085 69.1129C372.824 68.7251 372.394 68.5177 371.95 68.5267C377.243 65.0661 383.168 62.0849 389.074 59.2494" stroke="#663024" stroke-width="1.5" stroke-miterlimit="10"/>
<path d="M371.422 68.9217C371.837 68.9172 372.251 69.133 372.5 69.5169C372.761 69.9047 372.791 70.3698 372.637 70.7621C372.443 70.893 372.249 71.024 372.056 71.1549C372.006 71.1804 371.969 71.2099 371.919 71.2353C371.444 71.469 370.861 71.309 370.553 70.851C370.22 70.3434 370.341 69.6648 370.836 69.327C371.03 69.196 371.241 69.0566 371.435 68.9257" stroke="#663024" stroke-width="1.5" stroke-miterlimit="10"/>
<path d="M395.476 56.1595C403.231 52.5103 411.09 48.9639 419.501 46.1887C418.96 46.4564 418.688 47.0868 418.873 47.6708C419.057 48.2548 419.651 48.5976 420.248 48.4997C411.99 51.2275 404.23 54.723 396.492 58.3637C396.376 58.4231 396.24 58.462 396.111 58.4758C396.227 58.4164 396.338 58.3695 396.454 58.3101C397.041 58.0295 397.291 57.3369 397.019 56.7663C396.748 56.1957 396.056 55.9455 395.469 56.2261C395.353 56.2855 395.241 56.3324 395.113 56.3878C395.208 56.3078 395.315 56.2318 395.431 56.1724" stroke="#663024" stroke-width="1.5" stroke-miterlimit="10"/>
<path d="M394.245 56.8125C394.344 56.7615 394.456 56.7147 394.568 56.6677C395.105 56.4126 395.743 56.6592 395.998 57.1968C396.252 57.7343 396.031 58.3808 395.506 58.64C395.403 58.7034 395.295 58.7379 395.192 58.8013C394.719 58.8563 394.247 58.6078 394.026 58.1364C393.801 57.6775 393.916 57.1485 394.258 56.8165" stroke="#663024" stroke-width="1.5" stroke-miterlimit="10"/>
<path d="M419.635 46.2439C419.635 46.2439 419.73 46.2055 419.792 46.184C428.233 43.4459 436.361 42.6229 445.752 39.8039C445.269 40.1042 445.022 40.7012 445.194 41.2812C445.37 41.8486 445.902 42.2128 446.47 42.2025C436.823 45.0907 428.665 45.9182 420.568 48.5736M420.568 48.5736C420.506 48.5951 420.448 48.604 420.386 48.6255C420.448 48.604 420.51 48.5826 420.568 48.5736ZM420.568 48.5736C420.618 48.5482 420.676 48.5392 420.713 48.5097C421.267 48.2461 421.543 47.6031 421.346 47.0151C421.127 46.365 420.442 46.0067 419.792 46.2256C419.73 46.247 419.668 46.2685 419.606 46.2899C419.606 46.2899 419.623 46.2815 419.639 46.273" stroke="#663024" stroke-width="1.5" stroke-miterlimit="10"/>
<path d="M419.755 46.2143C419.693 46.2357 419.585 46.2701 419.585 46.2701C419.093 46.5123 418.846 47.1093 419.026 47.6642C419.206 48.2192 419.762 48.5498 420.314 48.4649C420.376 48.4435 420.421 48.4305 420.484 48.4091C420.529 48.3961 420.575 48.3831 420.624 48.3577C421.128 48.1195 421.376 47.5225 421.195 46.9676C420.99 46.363 420.355 46.0208 419.755 46.2143Z" stroke="#663024" stroke-width="1.5" stroke-miterlimit="10"/>
<path d="M446.987 39.5671C447.078 39.5412 447.186 39.5068 447.277 39.4809C447.886 39.3039 448.529 39.6627 448.718 40.2758C448.895 40.8432 448.639 41.4237 448.135 41.6618C448.085 41.6873 448.023 41.7087 447.977 41.7217C447.882 41.7601 447.779 41.782 447.688 41.8079C447.16 41.8177 446.662 41.4782 446.507 40.9313C446.336 40.3928 446.558 39.8294 447.004 39.5586" stroke="#663024" stroke-width="1.5" stroke-miterlimit="10"/>
<path d="M371.276 14.2189C371.529 14.1206 371.773 14.0058 372.025 13.9075C372.633 13.6475 373.35 13.9473 373.606 14.5679C373.866 15.1761 373.603 15.8646 373.032 16.1367C373.016 16.1452 372.999 16.1537 372.983 16.1622C372.73 16.2605 372.487 16.3753 372.234 16.4736C371.781 16.3829 371.374 16.059 371.179 15.5956C370.987 15.1197 371.04 14.6122 371.293 14.2105" stroke="#663024" stroke-width="1.5" stroke-miterlimit="10"/>
<path d="M368.189 55.8576C368.396 55.4273 368.829 55.111 369.348 55.0431C369.862 54.9877 370.337 55.182 370.653 55.5319C370.693 55.7933 370.729 56.0672 370.756 56.3245C370.765 56.3826 370.762 56.4367 370.775 56.4823C370.773 57.0891 370.304 57.6011 369.686 57.6784C368.998 57.7606 368.378 57.2852 368.301 56.6253C368.273 56.3679 368.233 56.1065 368.193 55.8451" stroke="#663024" stroke-width="1.5" stroke-miterlimit="10"/>
<path d="M486.817 53.4149C486.14 53.418 485.505 53.8072 485.212 54.4587C484.92 55.1101 485.056 55.8443 485.494 56.3715C474.868 51.4904 462.172 46.3572 451.119 43.0641C451.833 43.0315 452.459 42.5426 452.663 41.8215C452.868 41.1003 452.569 40.3555 451.988 39.9337C463.279 43.3032 476.083 48.4851 486.817 53.4149Z" stroke="#663024" stroke-width="1.5" stroke-miterlimit="10"/>
<path d="M361.985 30.2827C362.084 29.8037 362.487 29.4087 363.018 29.3448C363.553 29.2684 364.046 29.5374 364.279 29.9712C364.293 30.0999 364.319 30.2326 364.329 30.3738C364.338 30.4319 364.347 30.49 364.343 30.5441C364.332 31.0928 363.917 31.5668 363.341 31.6437C362.706 31.7295 362.125 31.3077 362.035 30.6853C362.021 30.5566 361.995 30.4239 361.973 30.2787" stroke="#663024" stroke-width="1.5" stroke-miterlimit="10"/>
<path d="M522.548 68.4261C515.226 63.31 509.305 60.6183 503.317 58.3887L503.267 58.3726C499.373 56.9266 495.472 55.672 491.086 54.0401L491.048 54.0281C490.79 53.9311 490.511 53.8967 490.254 53.9244C490.387 53.9812 490.537 54.0294 490.667 54.0987L490.992 54.2032C491.838 54.5307 492.267 55.4695 491.952 56.3207C491.637 57.1719 490.699 57.6018 489.848 57.2867L489.54 57.1737L489.515 57.1656C489.381 57.1089 489.256 57.0687 489.119 57.0245C489.307 57.2095 489.529 57.3774 489.792 57.4619C494.278 59.1259 498.216 60.3926 502.011 61.8064C507.848 63.9878 513.39 66.4883 520.477 71.4324C520.598 71.5267 520.74 71.5999 520.878 71.6442C520.978 71.6763 521.078 71.7085 521.182 71.7282C520.969 71.5767 520.764 71.4418 520.563 71.2943C519.822 70.7662 519.641 69.7416 520.157 68.9963C520.595 68.364 521.398 68.1393 522.078 68.3855C522.203 68.4257 522.332 68.495 522.445 68.5727L523.085 69.0271C522.954 68.7916 522.773 68.5816 522.548 68.4261Z" stroke="#663024" stroke-width="1.5" stroke-miterlimit="10"/>
<path d="M85.1302 228.44C85.1302 228.44 85.1056 228.474 85.085 228.495C71.1961 246.24 50.6467 270.582 31.7165 296.881C21.7662 310.702 12.2657 325.055 4.42928 339.253C4.39666 339.311 4.36399 339.37 4.31886 339.424C4.04451 339.805 3.63979 340.034 3.19588 340.085C3.42425 339.675 3.63617 339.274 3.86454 338.864C4.1948 338.266 3.95796 337.458 3.35974 337.045C2.79097 336.669 2.09832 336.764 1.74219 337.27C1.71762 337.304 1.68899 337.35 1.66442 337.383C1.43605 337.793 1.21177 338.19 0.995902 338.604C0.807673 338.074 0.830633 337.488 1.09967 336.995C9.02997 322.634 18.5958 308.164 28.6077 294.279C47.6322 267.859 68.2266 243.463 82.0498 225.793C82.1687 225.638 82.3212 225.507 82.4739 225.418C82.3591 225.561 82.2402 225.716 82.1254 225.858C82.1173 225.883 82.1008 225.892 82.0802 225.913C81.5315 226.675 81.7137 227.824 82.4851 228.514C83.2775 229.225 84.4108 229.175 85.0135 228.416C85.1283 228.274 85.2472 228.119 85.362 227.976C85.3097 228.139 85.2325 228.294 85.1342 228.428" stroke="#663024" stroke-width="1.5" stroke-miterlimit="10"/>
<path d="M136.659 173.708C136.659 173.708 136.585 173.809 136.544 173.851C128.428 182.699 121.069 189.623 112.638 198.121C104.293 206.522 94.8632 216.494 82.5157 231.463C82.8394 230.629 82.6129 229.617 81.8754 228.993C81.138 228.37 80.1198 228.318 79.373 228.796C91.8067 213.73 101.343 203.641 109.749 195.176C118.242 186.615 125.556 179.746 133.549 171.024C133.993 170.545 134.613 170.331 135.225 170.403C134.863 170.798 134.502 171.192 134.14 171.587C134.116 171.62 134.095 171.641 134.071 171.675C133.69 172.173 133.747 172.896 134.225 173.34C134.724 173.804 135.501 173.791 135.948 173.3C136.31 172.906 136.671 172.511 137.033 172.117C137.13 172.672 137.011 173.256 136.651 173.733" stroke="#663024" stroke-width="1.5" stroke-miterlimit="10"/>
<path d="M84.0295 229.632C83.8736 229.816 83.7175 230.001 83.5616 230.185C82.7574 231.141 81.3382 231.265 80.3788 230.473C79.4445 229.689 79.3098 228.307 80.0434 227.356C80.0515 227.331 80.0846 227.314 80.0926 227.289C80.2486 227.104 80.4044 226.919 80.5604 226.735C81.4064 226.206 82.5367 226.252 83.3411 226.925C84.158 227.602 84.3978 228.701 84.0129 229.64" stroke="#663024" stroke-width="1.5" stroke-miterlimit="10"/>
<path d="M177.467 127.43C177.467 127.43 177.422 127.485 177.397 127.518C171.897 133.508 166.745 139.319 161.551 145.214C161.313 144.24 161.087 143.27 160.861 142.3C165.681 136.837 170.497 131.428 175.619 125.842C175.766 125.682 175.956 125.564 176.155 125.503C176.011 125.65 175.88 125.801 175.748 125.952C175.728 125.973 175.707 125.994 175.683 126.028C175.351 126.46 175.403 127.07 175.805 127.448C176.229 127.847 176.898 127.827 177.284 127.399C177.415 127.248 177.559 127.101 177.69 126.95C177.65 127.116 177.586 127.275 177.471 127.418M159.778 147.211C152.503 155.46 145.068 163.947 136.427 173.4C136.356 172.976 136.153 172.58 135.813 172.263C135.473 171.947 135.073 171.777 134.648 171.723C143.713 161.813 151.455 152.97 159.083 144.31C159.313 145.267 159.539 146.237 159.794 147.203" stroke="#663024" stroke-width="1.5" stroke-miterlimit="10"/>
<path d="M137.054 172.607C136.631 173.064 136.221 173.526 135.793 173.996C135.264 174.571 134.363 174.585 133.78 174.038C133.218 173.513 133.146 172.661 133.593 172.087C133.618 172.054 133.642 172.02 133.679 171.991C134.102 171.533 134.517 171.059 134.94 170.601C135.431 170.663 135.927 170.878 136.33 171.256C136.733 171.634 136.979 172.113 137.067 172.611" stroke="#663024" stroke-width="1.5" stroke-miterlimit="10"/>
<path d="M216.622 88.0464C213.168 92.6509 205.8 99.8617 197.846 107.561C190.082 115.059 181.782 122.978 176.196 129.105C176.275 128.689 176.15 128.221 175.814 127.892C175.474 127.575 175.012 127.468 174.615 127.589C180.287 121.365 188.603 113.437 196.364 105.952C204.288 98.2987 211.652 91.0588 214.914 86.7099L214.922 86.6849C214.926 86.6724 214.946 86.6514 214.963 86.6429C215.733 85.6206 216.26 84.7546 216.483 84.1912C216.535 84.0286 216.575 83.9034 216.603 83.8159C216.691 83.844 216.754 83.8641 216.779 83.8722C217.219 84.2623 217.879 84.226 218.248 83.8065C218.256 83.7814 218.273 83.773 218.293 83.752C218.625 83.3203 218.544 82.6729 218.129 82.2909L218.045 82.2087C218.045 82.2087 217.978 82.1595 217.944 82.1349C218.015 82.1716 218.082 82.2207 218.133 82.2784C218.564 82.6519 218.77 83.2565 218.771 83.7261C218.774 84.445 218.523 85.0545 218.173 85.7564C217.81 86.4544 217.307 87.2037 216.676 88.05" stroke="#663024" stroke-width="1.5" stroke-miterlimit="10"/>
<path d="M177.235 127.934C177.067 128.115 176.895 128.308 176.726 128.488C176.237 129.021 175.403 129.043 174.87 128.554C174.359 128.086 174.305 127.309 174.711 126.777C174.735 126.744 174.76 126.71 174.78 126.689C174.949 126.508 175.121 126.316 175.294 126.122C175.799 125.967 176.369 126.082 176.78 126.476C177.195 126.858 177.355 127.434 177.231 127.947" stroke="#663024" stroke-width="1.5" stroke-miterlimit="10"/>
<path d="M218.481 82.9975C218.059 82.7651 217.512 82.8375 217.183 83.2151C217.175 83.2401 217.159 83.2486 217.138 83.2696C216.847 83.6592 216.853 84.1994 217.16 84.5743C217.152 84.5993 217.144 84.6243 217.136 84.6493C216.998 84.6051 216.811 84.5448 216.557 84.5184C214.826 84.2378 211.011 84.3911 206.237 85.0783C199.054 86.0948 189.602 88.2453 180.815 91.6313C172.048 94.9963 163.98 99.6213 159.533 105.384C159.533 105.384 159.525 105.409 159.521 105.421C158.049 107.336 156.97 109.363 156.348 111.51C156.318 111.045 155.994 110.637 155.524 110.513C155.078 110.398 154.627 110.556 154.365 110.9C154.361 110.912 154.34 110.933 154.323 110.942C155.017 108.487 156.244 106.217 157.85 104.138C161.326 99.6374 166.621 95.9565 172.625 92.9454C181.637 88.4307 192.306 85.4567 201.057 83.8124C205.431 82.9965 209.338 82.5139 212.323 82.3696C213.822 82.2995 215.093 82.2942 216.099 82.3831C216.606 82.4358 217.055 82.4974 217.451 82.5971C217.809 82.6847 218.143 82.8058 218.461 83.0185" stroke="#663024" stroke-width="1.5" stroke-miterlimit="10"/>
<path d="M188.781 196.604C184.286 188.835 176.79 175.297 169.901 160.987C167.24 155.451 164.652 149.814 162.382 144.349C162.828 143.733 163.274 143.117 163.721 142.501C170.453 158.928 180.146 177.301 186.849 189.314C186.885 189.547 186.925 189.766 186.973 190.003C187.43 192.442 188.076 194.679 188.777 196.616M162.736 140.073C162.29 140.688 161.84 141.316 161.389 141.945C160.191 138.978 159.085 136.068 158.122 133.273C155.146 124.64 153.411 117.124 154.047 111.889C154.054 111.781 154.09 111.668 154.143 111.589C154.124 111.693 154.116 111.801 154.097 111.905C154.035 112.396 154.41 112.862 154.921 112.944C155.313 113.014 155.672 112.84 155.852 112.539C155.913 112.434 155.949 112.322 155.961 112.201C155.976 112.109 155.983 112.001 156.003 111.897C156.025 112.001 156.034 112.1 156.015 112.205C155.419 116.845 157.036 124.254 159.998 132.758C160.812 135.119 161.734 137.569 162.724 140.068" stroke="#663024" stroke-width="1.5" stroke-miterlimit="10"/>
<path d="M157.818 111.487C157.506 111.898 156.96 112.095 156.44 111.955C155.74 111.772 155.313 111.041 155.509 110.344C155.557 110.194 155.593 110.04 155.629 109.886C155.637 109.861 155.658 109.84 155.678 109.819C156.01 109.387 156.577 109.169 157.135 109.321C157.731 109.485 158.131 110 158.166 110.578C158.121 110.715 158.073 110.865 158.041 111.007C157.985 111.182 157.92 111.341 157.809 111.471" stroke="#663024" stroke-width="1.5" stroke-miterlimit="10"/>
<path d="M203.455 163.938C203.455 163.938 203.553 163.846 203.607 163.808C203.496 163.979 203.395 164.168 203.297 164.343C202.901 165.017 203.126 165.903 203.803 166.328C204.367 166.676 205.069 166.597 205.521 166.177C205.62 166.084 205.706 165.988 205.771 165.871C205.886 165.687 205.984 165.511 206.094 165.34C206.067 165.552 206.003 165.752 205.897 165.953C203.643 169.742 201.63 174.327 199.328 178.998C197.025 183.669 194.424 188.41 190.882 192.517C190.841 192.559 190.8 192.601 190.759 192.643C190.545 192.836 190.297 192.963 190.032 193.016C190.245 192.781 190.442 192.555 190.643 192.316C191.086 191.795 191.028 190.99 190.5 190.53C190.005 190.095 189.283 190.111 188.818 190.527C188.781 190.557 188.756 190.59 188.719 190.62C188.522 190.846 188.325 191.073 188.116 191.295C188.137 190.971 188.263 190.666 188.484 190.406C191.743 186.623 194.243 182.111 196.517 177.528C198.779 172.94 200.808 168.306 203.209 164.273C203.291 164.148 203.381 164.039 203.484 163.934" stroke="#663024" stroke-width="1.5" stroke-miterlimit="10"/>
</g>
<defs>
<clipPath id="clip0_443_168">
<rect width="548" height="354" fill="white"/>
</clipPath>
</defs>
</svg>
