<svg width="393" height="692" viewBox="0 0 393 692" fill="none" xmlns="http://www.w3.org/2000/svg">
<mask id="mask0_328_805" style="mask-type:luminance" maskUnits="userSpaceOnUse" x="-2232" y="0" width="2652" height="692">
<path d="M420 0H-2232V692H420V0Z" fill="white"/>
</mask>
<g mask="url(#mask0_328_805)">
<path d="M100.199 652.789C100.199 652.789 100.149 652.872 100.116 652.922C96.3837 659.346 94.3931 665.19 92.6844 670.95C91.0919 676.329 89.7315 681.641 87.4589 687.451C88.0395 687.119 88.7695 687.053 89.433 687.318C90.0966 687.584 90.5446 688.132 90.727 688.763C93.0992 682.687 94.4926 677.242 96.052 671.946C97.7275 666.269 99.6187 660.774 103.152 654.681C103.318 654.399 103.384 654.1 103.384 653.785C103.235 654.034 103.069 654.3 102.936 654.549C102.92 654.582 102.887 654.632 102.87 654.665C102.422 655.312 101.56 655.512 100.863 655.096C100.133 654.681 99.8839 653.752 100.315 653.021C100.465 652.756 100.63 652.49 100.78 652.225C100.548 652.357 100.332 652.523 100.183 652.756" stroke="white" stroke-miterlimit="10"/>
<path d="M86.9447 688.729C87.1272 688.298 87.293 687.883 87.4589 687.451C88.0395 687.119 88.7695 687.053 89.433 687.318C90.0966 687.584 90.5612 688.132 90.7436 688.762C90.5612 689.194 90.3952 689.642 90.2127 690.074C90.1629 690.207 90.1132 690.323 90.0302 690.423C89.5657 691.07 88.6865 691.352 87.9068 691.037C87.011 690.672 86.5798 689.626 86.9447 688.729Z" stroke="white" stroke-miterlimit="10"/>
<path d="M102.953 648.954C102.207 650.033 101.477 651.129 100.797 652.258C101.327 651.976 101.974 651.959 102.522 652.274C103.086 652.606 103.401 653.187 103.401 653.802C104.031 652.756 104.712 651.727 105.425 650.697C105.425 650.681 105.458 650.648 105.475 650.631C111.662 641.783 120.736 633.765 129.114 621.812C130.391 619.986 131.652 618.06 132.879 616.035C132.349 616.251 131.735 616.234 131.187 615.919C130.657 615.603 130.325 615.056 130.275 614.475C129.081 616.433 127.87 618.293 126.626 620.069C126.626 620.086 126.592 620.102 126.592 620.119C118.447 631.756 109.456 639.674 102.937 648.954" stroke="white" stroke-miterlimit="10"/>
<path d="M100.796 652.258C100.647 652.524 100.481 652.789 100.332 653.055C99.9172 653.785 100.166 654.715 100.879 655.13C101.56 655.529 102.439 655.329 102.887 654.699C102.903 654.665 102.936 654.632 102.953 654.582C103.102 654.317 103.252 654.068 103.401 653.819C103.401 653.204 103.086 652.623 102.522 652.291C101.974 651.976 101.311 651.976 100.796 652.275" stroke="white" stroke-miterlimit="10"/>
<path d="M161.462 548.687C156.071 556.904 151.028 568.358 146.068 579.946C140.792 592.263 135.633 604.73 130.54 613.346C130.325 613.711 130.242 614.11 130.292 614.492C130.491 614.176 130.673 613.861 130.872 613.529C130.889 613.496 130.922 613.462 130.939 613.429C131.386 612.782 132.266 612.583 132.962 612.998C133.692 613.429 133.924 614.359 133.493 615.073C133.294 615.405 133.095 615.72 132.913 616.052C133.228 615.919 133.526 615.687 133.742 615.388C133.775 615.355 133.792 615.305 133.825 615.272C139.133 606.274 144.309 593.741 149.584 581.44C154.511 569.919 159.538 558.581 164.631 550.811C163.95 550.961 163.204 550.811 162.574 550.396C161.976 549.981 161.611 549.367 161.495 548.703" stroke="white" stroke-miterlimit="10"/>
<path d="M130.922 613.429C130.922 613.429 130.872 613.495 130.855 613.528C130.673 613.844 130.474 614.176 130.275 614.491C130.341 615.072 130.657 615.62 131.187 615.935C131.718 616.251 132.348 616.267 132.879 616.051C133.078 615.736 133.261 615.404 133.46 615.072C133.891 614.358 133.642 613.412 132.929 612.997C132.249 612.599 131.37 612.781 130.905 613.429" stroke="white" stroke-miterlimit="10"/>
<path d="M161.943 546.66L161.91 546.694C161.495 547.291 161.362 547.989 161.478 548.653C161.827 548.121 162.175 547.607 162.524 547.109C163.121 546.245 164.299 546.046 165.161 546.644C166.024 547.242 166.223 548.42 165.626 549.283C165.294 549.765 164.946 550.263 164.614 550.777C165.244 550.645 165.825 550.279 166.223 549.715L166.256 549.682C171.581 542.062 178.034 537.198 184.371 532.932C190.692 528.649 196.929 525.063 201.524 519.651C201.574 519.585 201.624 519.535 201.674 519.469C202.072 518.888 202.221 518.207 202.121 517.543C201.74 518.074 201.342 518.589 200.894 519.12C200.247 519.884 199.119 519.967 198.372 519.336C197.659 518.738 197.526 517.692 198.057 516.945C198.09 516.895 198.124 516.862 198.157 516.812C198.571 516.331 198.936 515.833 199.301 515.352C198.638 515.418 197.991 515.717 197.526 516.281C193.81 520.73 187.971 524.233 181.468 528.599C174.982 532.965 167.865 538.277 161.993 546.677" stroke="white" stroke-miterlimit="10"/>
<path d="M162.507 547.142C162.159 547.64 161.811 548.155 161.462 548.686C161.578 549.35 161.943 549.964 162.54 550.379C163.154 550.811 163.901 550.944 164.597 550.795C164.929 550.28 165.278 549.782 165.609 549.3C166.207 548.437 165.991 547.259 165.145 546.661C164.282 546.063 163.104 546.262 162.507 547.126" stroke="white" stroke-miterlimit="10"/>
<path d="M208.641 492.128C205.887 496.079 204.892 500.163 203.88 504.031C202.885 507.915 201.889 511.584 199.351 515.203C199.318 515.253 199.285 515.303 199.235 515.352C199.915 515.286 200.612 515.485 201.159 515.967C201.657 516.398 201.972 516.963 202.055 517.56C202.121 517.461 202.204 517.361 202.271 517.261C205.207 513.061 206.318 508.828 207.33 504.944C208.326 501.043 209.238 497.507 211.544 494.22C212.44 492.941 213.551 491.696 214.978 490.451C215.094 490.352 215.193 490.235 215.276 490.119C215.426 489.903 215.525 489.638 215.575 489.389C215.26 489.621 214.978 489.87 214.679 490.119C214.115 490.601 213.269 490.534 212.788 489.986C212.373 489.505 212.357 488.824 212.705 488.343C212.771 488.26 212.838 488.177 212.937 488.094C213.236 487.828 213.568 487.579 213.883 487.314C213.452 487.297 213.004 487.447 212.639 487.745C210.98 489.173 209.669 490.651 208.608 492.178" stroke="white" stroke-miterlimit="10"/>
<path d="M198.024 516.946C197.493 517.693 197.626 518.739 198.339 519.336C199.102 519.967 200.23 519.884 200.861 519.121C201.292 518.589 201.707 518.075 202.088 517.543C201.989 516.946 201.69 516.365 201.192 515.95C200.628 515.485 199.932 515.286 199.268 515.336C198.92 515.817 198.538 516.315 198.124 516.796C198.09 516.846 198.057 516.879 198.024 516.929" stroke="white" stroke-miterlimit="10"/>
<path d="M213.916 487.263C214.397 487.28 214.862 487.496 215.21 487.878C215.575 488.293 215.708 488.841 215.625 489.339C217.881 487.612 220.718 486.118 223.952 484.724C229.46 482.333 236.062 480.241 242.648 477.536C248.786 474.996 254.924 471.908 260.116 467.459C259.652 467.409 259.187 467.21 258.856 466.828C258.491 466.43 258.325 465.932 258.341 465.434C251.739 471.061 243.312 474.531 235.183 477.536C230.903 479.129 226.706 480.607 222.907 482.25C219.54 483.711 216.487 485.288 213.949 487.247" stroke="white" stroke-miterlimit="10"/>
<path d="M212.738 488.276C212.39 488.774 212.407 489.455 212.821 489.92C213.302 490.484 214.148 490.551 214.712 490.069C214.994 489.82 215.293 489.588 215.608 489.339C215.691 488.824 215.558 488.293 215.193 487.878C214.862 487.48 214.381 487.28 213.9 487.264C213.568 487.513 213.253 487.778 212.954 488.044C212.871 488.127 212.788 488.21 212.722 488.293" stroke="white" stroke-miterlimit="10"/>
<path d="M290.192 418.553C282.893 428.995 276.207 441.794 268.975 452.153C268.975 452.153 268.958 452.186 268.941 452.186C268.941 452.186 268.941 452.186 268.941 452.203C265.74 456.785 262.422 460.885 258.955 464.056C258.839 464.155 258.756 464.255 258.673 464.371C258.457 464.687 258.341 465.052 258.324 465.434C258.673 465.135 259.038 464.819 259.37 464.504C259.917 464.006 260.763 464.039 261.277 464.587C261.709 465.068 261.742 465.766 261.394 466.264C261.344 466.347 261.277 466.413 261.195 466.48C260.846 466.812 260.481 467.127 260.116 467.442C260.647 467.492 261.195 467.326 261.609 466.928C265.392 463.458 268.859 459.142 272.176 454.411C279.625 443.77 286.293 430.971 293.393 420.811C293.393 420.811 293.41 420.778 293.427 420.778C295.019 418.504 296.628 416.379 298.254 414.436C297.508 414.636 296.695 414.47 296.081 413.922C295.484 413.391 295.202 412.627 295.285 411.88C293.543 413.938 291.867 416.179 290.225 418.537" stroke="white" stroke-miterlimit="10"/>
<path d="M258.308 465.451C258.291 465.949 258.457 466.447 258.822 466.845C259.171 467.227 259.619 467.426 260.083 467.476C260.448 467.16 260.813 466.845 261.161 466.513C261.228 466.447 261.294 466.38 261.36 466.297C261.709 465.799 261.675 465.085 261.244 464.62C260.747 464.073 259.901 464.039 259.337 464.537C258.988 464.853 258.64 465.168 258.292 465.467" stroke="white" stroke-miterlimit="10"/>
<path d="M295.666 410.801C295.434 411.133 295.301 411.515 295.251 411.896C295.55 411.548 295.832 411.199 296.131 410.867C296.844 410.054 298.072 409.971 298.884 410.685C299.648 411.349 299.764 412.478 299.2 413.274C299.15 413.341 299.117 413.391 299.067 413.44C298.785 413.772 298.486 414.104 298.204 414.436C298.652 414.32 299.05 414.071 299.365 413.706C305.553 406.634 313.201 401.156 320.533 395.827C327.848 390.498 334.866 385.335 339.61 378.562L339.776 378.313C340.041 377.915 340.174 377.467 340.191 377.035C339.959 377.4 339.71 377.749 339.477 378.114C338.847 379.011 337.603 379.243 336.69 378.612C335.778 377.981 335.546 376.736 336.176 375.823C336.408 375.475 336.641 375.143 336.856 374.794C336.475 374.96 336.143 375.226 335.878 375.607C335.878 375.607 335.878 375.607 335.878 375.624L335.728 375.84C335.728 375.84 335.695 375.873 335.695 375.89C331.598 381.75 325.029 386.697 317.746 391.992C310.447 397.304 302.484 402.965 295.816 410.568C295.749 410.635 295.699 410.701 295.649 410.768" stroke="white" stroke-miterlimit="10"/>
<path d="M295.251 411.897C295.168 412.644 295.434 413.407 296.048 413.939C296.661 414.487 297.491 414.653 298.221 414.453C298.503 414.105 298.785 413.773 299.084 413.457C299.133 413.407 299.183 413.341 299.216 413.291C299.78 412.478 299.664 411.366 298.901 410.685C298.088 409.971 296.844 410.054 296.147 410.868C295.849 411.2 295.55 411.548 295.268 411.897" stroke="white" stroke-miterlimit="10"/>
<path d="M336.89 374.827C336.674 375.176 336.442 375.508 336.209 375.856C335.579 376.769 335.811 378.015 336.724 378.645C337.636 379.276 338.88 379.044 339.511 378.147C339.759 377.799 339.992 377.433 340.224 377.068C340.24 376.288 339.892 375.524 339.195 375.043C338.482 374.562 337.603 374.512 336.89 374.827Z" stroke="white" stroke-miterlimit="10"/>
<path d="M376.554 339.617C376.487 339.966 376.404 340.298 376.321 340.646C376.106 341.559 376.67 342.472 377.582 342.671C378.279 342.837 378.976 342.539 379.357 341.991C379.473 341.825 379.573 341.626 379.623 341.41C379.705 341.045 379.788 340.696 379.855 340.331C379.623 339.717 379.108 339.235 378.428 339.069C377.731 338.903 377.018 339.136 376.554 339.6" stroke="white" stroke-miterlimit="10"/>
<path d="M226.706 325.241C248.57 320.908 275.411 313.089 297.176 309.254C297.491 309.204 297.823 309.138 298.138 309.088C298.785 308.972 299.316 308.607 299.664 308.092C299.1 308.175 298.553 308.275 298.005 308.358C297.126 308.507 296.28 307.909 296.131 307.013C295.981 306.117 296.562 305.27 297.441 305.121C298.005 305.021 298.569 304.938 299.133 304.838C298.636 304.457 297.989 304.274 297.325 304.39C296.993 304.44 296.678 304.506 296.346 304.556C274.217 308.457 247.359 316.293 225.794 320.559C226.673 320.875 227.386 321.638 227.569 322.651C227.768 323.647 227.403 324.626 226.69 325.241" stroke="white" stroke-miterlimit="10"/>
<path d="M299.731 308.591C300.029 308.159 300.162 307.611 300.062 307.063C299.963 306.516 299.664 306.051 299.266 305.752C298.768 305.835 298.271 305.918 297.756 306.001C296.977 306.134 296.446 306.881 296.579 307.661C296.711 308.441 297.458 308.972 298.238 308.84C298.735 308.757 299.233 308.674 299.714 308.591" stroke="white" stroke-miterlimit="10"/>
<path d="M208.807 304.092C212.257 309.836 215.907 315.696 219.838 322.021C220.071 322.403 220.386 322.685 220.751 322.884C220.535 322.535 220.32 322.203 220.104 321.855C220.104 321.855 220.104 321.838 220.087 321.822C219.507 320.842 219.805 319.564 220.768 318.966C221.746 318.352 223.04 318.651 223.654 319.63C223.87 319.962 224.085 320.311 224.284 320.643C224.284 320.244 224.152 319.846 223.936 319.481C223.936 319.481 223.936 319.464 223.919 319.448C219.988 313.123 216.338 307.279 212.937 301.585C207.082 291.824 201.856 282.528 196.813 272.119C196.78 272.053 196.747 271.986 196.714 271.92C196.515 271.588 196.249 271.322 195.934 271.123C196.116 271.505 196.299 271.887 196.481 272.268C196.979 273.281 196.548 274.51 195.536 275.008C194.574 275.472 193.429 275.124 192.882 274.211C192.848 274.161 192.815 274.095 192.799 274.045C192.616 273.663 192.434 273.265 192.251 272.883C192.201 273.314 192.268 273.779 192.483 274.194C197.593 284.769 202.901 294.198 208.807 304.042" stroke="white" stroke-miterlimit="10"/>
<path d="M224.566 325.025H224.599C225.097 324.925 225.611 324.826 226.109 324.726C226.905 324.046 227.337 323 227.121 321.921C226.905 320.842 226.126 320.012 225.13 319.68C224.633 319.779 224.118 319.879 223.621 319.978C222.178 320.261 221.232 321.605 221.497 323C221.763 324.378 223.123 325.291 224.55 325.042" stroke="white" stroke-miterlimit="10"/>
<path d="M192.251 272.915C192.334 272.118 192.815 271.388 193.595 271.006C194.375 270.624 195.254 270.707 195.95 271.139C188.402 255.269 184.006 240.826 175.762 220.673C175.944 221.636 175.447 222.615 174.501 222.997C173.572 223.379 172.51 223.03 171.963 222.233C180.141 242.204 184.537 256.696 192.234 272.915" stroke="white" stroke-miterlimit="10"/>
<path d="M192.898 274.244C193.429 275.14 194.59 275.505 195.552 275.041C196.564 274.543 196.995 273.314 196.514 272.302C196.332 271.92 196.149 271.538 195.967 271.156C195.287 270.724 194.407 270.641 193.611 271.023C192.831 271.405 192.351 272.136 192.268 272.932C192.45 273.314 192.632 273.696 192.815 274.094C192.848 274.144 192.865 274.211 192.898 274.26" stroke="white" stroke-miterlimit="10"/>
<path d="M171.93 222.151C171.93 222.151 171.963 222.217 171.979 222.233L171.814 221.852C171.382 220.806 171.88 219.611 172.925 219.179C173.871 218.781 174.949 219.179 175.463 220.026C175.513 220.109 175.563 220.208 175.596 220.308C175.646 220.441 175.695 220.557 175.745 220.69C175.712 220.557 175.679 220.424 175.629 220.291C167.351 200.138 156.817 171.037 146.267 149.489C146.068 150.236 145.57 150.884 144.823 151.266C144.077 151.647 143.231 151.647 142.518 151.349C152.902 172.564 163.42 201.632 171.747 221.901C171.797 222.001 171.83 222.101 171.896 222.184" stroke="white" stroke-miterlimit="10"/>
<path d="M171.98 222.234C172.527 223.047 173.572 223.396 174.518 222.997C175.447 222.615 175.961 221.619 175.778 220.673C175.728 220.54 175.679 220.424 175.612 220.291C175.579 220.192 175.53 220.109 175.48 220.009C174.966 219.146 173.887 218.781 172.942 219.163C171.897 219.594 171.399 220.789 171.83 221.835L171.996 222.217" stroke="white" stroke-miterlimit="10"/>
<path d="M348.021 313.554C348.021 313.554 348.004 313.637 347.988 313.686C346.246 322.701 345.317 330.387 343.94 339.434C342.563 348.399 340.722 358.724 337.172 373.134C337.536 372.553 338.233 372.237 338.93 372.42C339.627 372.586 340.108 373.2 340.141 373.881C343.724 359.388 345.582 348.93 346.959 339.916C348.352 330.802 349.282 323.165 350.99 314.284C351.09 313.786 350.94 313.305 350.625 312.956C350.542 313.354 350.476 313.753 350.393 314.168C350.393 314.201 350.393 314.218 350.376 314.251C350.243 314.699 349.779 314.998 349.315 314.898C348.817 314.799 348.485 314.317 348.585 313.819C348.668 313.421 348.751 313.006 348.817 312.607C348.435 312.79 348.137 313.139 348.021 313.57" stroke="white" stroke-miterlimit="10"/>
<path d="M358.488 266.026C358.488 266.026 358.488 266.076 358.472 266.109C357.277 272.252 356.05 278.078 354.772 283.988C355.469 283.69 356.166 283.391 356.846 283.092C358.024 277.614 359.169 272.169 360.28 266.458C360.313 266.292 360.297 266.126 360.247 265.977C360.214 266.126 360.18 266.275 360.164 266.441C360.164 266.458 360.164 266.491 360.147 266.508C360.031 266.906 359.633 267.155 359.235 267.072C358.804 266.989 358.522 266.574 358.604 266.126C358.638 265.977 358.671 265.827 358.687 265.678C358.604 265.777 358.538 265.894 358.505 266.026M354.341 285.98C352.566 294.248 350.725 302.714 348.834 312.359C349.116 312.21 349.447 312.16 349.796 312.226C350.127 312.293 350.426 312.458 350.642 312.708C352.632 302.581 354.557 293.766 356.415 285.101C355.735 285.399 355.038 285.682 354.341 285.98Z" stroke="white" stroke-miterlimit="10"/>
<path d="M348.85 312.542C348.767 312.923 348.701 313.322 348.618 313.704C348.518 314.185 348.834 314.667 349.315 314.75C349.779 314.833 350.21 314.55 350.343 314.119C350.343 314.102 350.343 314.069 350.36 314.036C350.443 313.637 350.509 313.255 350.592 312.874C350.393 312.641 350.111 312.475 349.779 312.409C349.447 312.342 349.132 312.409 348.85 312.542Z" stroke="white" stroke-miterlimit="10"/>
<path d="M368.126 217.768H368.209C368.209 217.768 368.259 217.801 368.292 217.818C368.243 217.801 368.176 217.768 368.126 217.768C367.712 217.685 367.313 217.934 367.197 218.332C367.197 218.349 367.197 218.366 367.197 218.382C367.098 218.814 367.363 219.229 367.778 219.328C367.795 219.328 367.844 219.362 367.894 219.395C367.861 219.461 367.795 219.528 367.728 219.644C367.496 220.042 367.214 220.756 366.949 221.702C366.949 221.719 366.949 221.752 366.949 221.752V221.769C365.804 225.786 364.709 233.671 363.631 242.104C362.569 250.355 361.491 259.153 360.28 265.528C360.18 265.213 359.931 264.98 359.583 264.914C359.235 264.847 358.92 264.98 358.704 265.229C359.898 258.954 360.993 250.156 362.055 241.905C363.15 233.439 364.228 225.554 365.439 221.304M368.126 217.768C367.712 217.668 367.28 217.818 367.015 218.033C366.6 218.365 366.335 218.797 366.086 219.345C365.837 219.893 365.605 220.54 365.389 221.32" stroke="white" stroke-miterlimit="10"/>
<path d="M358.737 265.495C358.704 265.644 358.688 265.777 358.654 265.926C358.571 266.341 358.837 266.74 359.252 266.823C359.65 266.906 360.031 266.657 360.131 266.291C360.131 266.275 360.131 266.242 360.147 266.225C360.18 266.076 360.197 265.943 360.23 265.793C360.131 265.511 359.882 265.279 359.567 265.212C359.251 265.146 358.936 265.279 358.737 265.511" stroke="white" stroke-miterlimit="10"/>
<path d="M368.392 217.817C368.724 217.967 368.923 218.349 368.84 218.714C368.84 218.73 368.84 218.747 368.84 218.764C368.74 219.129 368.392 219.361 368.027 219.345C368.027 219.345 367.994 219.378 367.994 219.394C368.077 219.461 368.193 219.56 368.342 219.693C369.288 220.639 370.913 223.08 372.639 226.35C375.243 231.281 378.179 238.137 380.037 245.126C381.912 252.098 382.692 259.22 381.149 264.598C381.149 264.598 381.149 264.615 381.149 264.631C380.635 266.424 379.871 268.001 378.826 269.363C379.125 269.18 379.523 269.18 379.805 269.412C380.071 269.628 380.17 269.993 380.087 270.309C380.087 270.309 380.087 270.342 380.087 270.359C381.281 268.815 382.128 267.022 382.692 265.08C383.886 260.88 383.787 255.916 382.924 250.82C381.647 243.167 378.677 235.182 375.741 229.006C374.281 225.919 372.821 223.279 371.56 221.353C370.93 220.39 370.366 219.61 369.852 219.013C369.603 218.714 369.354 218.465 369.122 218.266C368.906 218.083 368.691 217.934 368.409 217.834" stroke="white" stroke-miterlimit="10"/>
<path d="M367.281 218.266C367.281 218.266 367.281 218.299 367.281 218.316C367.198 218.714 367.446 219.113 367.844 219.213C367.861 219.213 367.894 219.246 367.944 219.279C367.944 219.262 367.977 219.246 367.977 219.246C368.326 219.246 368.641 219.03 368.74 218.698C368.74 218.681 368.74 218.665 368.74 218.648C368.823 218.299 368.624 217.951 368.309 217.801C368.276 217.801 368.259 217.785 368.226 217.768H368.143C367.762 217.669 367.363 217.901 367.264 218.266" stroke="white" stroke-miterlimit="10"/>
<path d="M304.276 307.561C312.039 305.022 325.36 300.373 338.781 294.812C343.973 292.671 349.165 290.38 354.076 288.022C354.175 287.309 354.291 286.595 354.391 285.881C339.726 293.019 321.976 299.626 310.115 303.694C309.949 303.826 309.783 303.959 309.601 304.092C307.759 305.503 305.951 306.632 304.276 307.545M356.531 284.819C356.431 285.532 356.315 286.263 356.216 286.977C358.853 285.665 361.391 284.354 363.764 283.026C371.113 278.909 376.968 274.792 379.855 270.741C379.921 270.658 379.954 270.559 379.988 270.459C379.938 270.542 379.871 270.625 379.822 270.708C379.556 271.09 379.025 271.173 378.644 270.907C378.362 270.708 378.229 270.359 378.312 270.044C378.329 269.928 378.378 269.828 378.445 269.745C378.495 269.662 378.561 269.596 378.611 269.513C378.528 269.562 378.461 269.629 378.412 269.712C375.873 273.331 370.15 277.448 362.901 281.482C360.894 282.611 358.77 283.723 356.547 284.835" stroke="white" stroke-miterlimit="10"/>
<path d="M354.822 283.922C354.689 284.553 354.557 285.2 354.407 285.831C355.071 285.565 355.735 285.283 356.398 285.001C356.531 284.353 356.68 283.723 356.813 283.075C356.149 283.357 355.486 283.64 354.822 283.922Z" stroke="white" stroke-miterlimit="10"/>
<path d="M378.511 270.16C378.428 270.442 378.511 270.757 378.76 270.957C379.092 271.222 379.556 271.172 379.821 270.84C379.888 270.774 379.938 270.691 379.988 270.625C379.988 270.625 379.988 270.591 379.988 270.575C380.07 270.276 379.987 269.944 379.722 269.728C379.44 269.512 379.075 269.496 378.793 269.678C378.743 269.745 378.693 269.811 378.644 269.878C378.577 269.961 378.528 270.043 378.511 270.143" stroke="white" stroke-miterlimit="10"/>
<path d="M297.657 308.292C297.624 308.441 297.624 308.591 297.674 308.74C297.806 309.205 298.32 309.47 298.785 309.338C299.963 308.989 301.837 308.408 304.243 307.611C305.902 306.715 307.71 305.569 309.551 304.175C309.717 304.042 309.883 303.909 310.065 303.776C304.541 305.685 300.311 307.03 298.287 307.628C297.972 307.727 297.74 307.976 297.674 308.292" stroke="white" stroke-miterlimit="10"/>
</g>
<path d="M282.511 17.0164C292.166 18.7595 304.674 18.9421 317.281 18.9919C330.669 19.0417 344.172 18.9255 354.076 20.2535C354.49 20.3033 354.889 20.2203 355.237 20.0377C354.872 19.9879 354.507 19.9381 354.125 19.8883C354.092 19.8883 354.042 19.8883 354.009 19.8717C353.246 19.7057 352.715 18.9753 352.815 18.1785C352.931 17.3484 353.694 16.7674 354.523 16.867C354.905 16.9168 355.27 16.9666 355.652 17.033C355.403 16.784 355.088 16.6014 354.723 16.535C354.673 16.535 354.623 16.5184 354.573 16.5184C344.222 15.1405 330.669 15.2733 317.298 15.2235C304.757 15.1903 292.382 14.9745 283.241 13.3311C283.639 13.9121 283.805 14.6425 283.656 15.3895C283.506 16.1034 283.075 16.6844 282.511 17.0496" stroke="white" stroke-miterlimit="10"/>
<path d="M354.009 19.8545C354.009 19.8545 354.092 19.8545 354.125 19.8711C354.49 19.9209 354.872 19.9707 355.237 20.0205C355.751 19.7383 356.116 19.2236 356.199 18.6094C356.282 17.9952 356.066 17.4142 355.652 17.0158C355.287 16.966 354.905 16.8995 354.523 16.8497C353.694 16.7335 352.931 17.3146 352.815 18.1612C352.715 18.958 353.23 19.6885 354.009 19.8545Z" stroke="white" stroke-miterlimit="10"/>
<path d="M282.627 17.2322L282.66 17.199C283.092 16.618 283.241 15.9207 283.142 15.2401C282.777 15.7547 282.428 16.2528 282.063 16.7508C281.449 17.5974 280.255 17.7634 279.426 17.1492C278.58 16.5184 278.414 15.3397 279.028 14.4931C279.376 14.0283 279.724 13.5302 280.073 13.0322C279.442 13.1484 278.845 13.497 278.43 14.0615L278.397 14.0947C272.873 21.565 266.304 26.263 259.851 30.3634C253.431 34.4803 247.077 37.9001 242.366 43.1957C242.316 43.2621 242.266 43.3119 242.217 43.3783C241.802 43.9427 241.636 44.6234 241.719 45.2874C242.117 44.7728 242.532 44.2581 242.98 43.7435C243.643 43.0131 244.771 42.9301 245.501 43.5941C246.198 44.2249 246.298 45.2708 245.75 46.0012C245.717 46.0344 245.684 46.0842 245.651 46.134C245.219 46.6154 244.838 47.0969 244.473 47.5617C245.136 47.5119 245.8 47.2297 246.265 46.6818C250.097 42.3325 256.019 38.9791 262.654 34.7957C269.257 30.5958 276.489 25.4661 282.594 17.2322" stroke="white" stroke-miterlimit="10"/>
<path d="M283.158 15.2232C282.793 15.7378 282.445 16.2359 282.08 16.7339C281.466 17.5805 280.289 17.7465 279.442 17.1323C278.596 16.5015 278.43 15.3228 279.044 14.4762C279.393 14.0114 279.741 13.5133 280.089 13.0153C280.786 12.8991 281.516 13.0485 282.13 13.4967C282.711 13.9284 283.059 14.5592 283.158 15.2232Z" stroke="white" stroke-miterlimit="10"/>
<path d="M234.52 70.5202C237.373 66.6522 238.484 62.585 239.579 58.7503C240.691 54.8823 241.769 51.2468 244.39 47.7108C244.423 47.661 244.473 47.6112 244.506 47.5614C243.826 47.6112 243.146 47.3954 242.598 46.8974C242.101 46.4658 241.819 45.8847 241.736 45.2705C241.653 45.3701 241.586 45.4697 241.52 45.5693C238.468 49.6863 237.257 53.9029 236.145 57.7542C235.034 61.6222 234.038 65.1415 231.65 68.3621C230.721 69.6237 229.576 70.8356 228.116 72.0474C228 72.147 227.901 72.2466 227.818 72.3628C227.652 72.5787 227.552 72.8277 227.502 73.0933C227.818 72.8609 228.116 72.6285 228.415 72.396C228.996 71.9312 229.842 72.0142 230.306 72.5787C230.704 73.0601 230.704 73.7407 230.356 74.2221C230.289 74.3051 230.206 74.3881 230.123 74.4711C229.808 74.7201 229.493 74.9692 229.161 75.2182C229.593 75.2514 230.041 75.1186 230.405 74.8197C232.098 73.4419 233.458 71.981 234.553 70.5036" stroke="white" stroke-miterlimit="10"/>
<path d="M245.783 46.0007C246.331 45.2537 246.231 44.2078 245.535 43.5936C244.788 42.9462 243.66 43.0126 242.996 43.743C242.548 44.2576 242.117 44.7722 241.736 45.2869C241.819 45.8845 242.101 46.4655 242.598 46.9137C243.146 47.3952 243.826 47.611 244.506 47.5778C244.871 47.0963 245.252 46.6149 245.684 46.1501C245.717 46.1169 245.75 46.0671 245.783 46.0173" stroke="white" stroke-miterlimit="10"/>
<path d="M229.128 75.2509C228.647 75.2177 228.182 75.0019 227.851 74.6034C227.502 74.1718 227.386 73.6406 227.486 73.126C225.197 74.8026 222.31 76.2137 219.042 77.5252C213.468 79.7663 206.816 81.6919 200.164 84.2318C193.96 86.6057 187.755 89.5275 182.43 93.8436C182.895 93.8934 183.343 94.1259 183.674 94.5077C184.023 94.9061 184.172 95.4207 184.156 95.9021C190.891 90.4405 199.417 87.2034 207.629 84.4144C211.959 82.937 216.189 81.5757 220.021 80.0319C223.422 78.6706 226.524 77.1599 229.111 75.2675" stroke="white" stroke-miterlimit="10"/>
<path d="M230.323 74.2547C230.671 73.7733 230.671 73.0926 230.273 72.6112C229.808 72.0302 228.962 71.9472 228.382 72.412C228.1 72.6444 227.785 72.8934 227.469 73.1092C227.37 73.6073 227.486 74.1551 227.834 74.5867C228.166 74.9851 228.631 75.2175 229.112 75.2341C229.443 74.9851 229.759 74.7361 230.074 74.4871C230.157 74.4207 230.24 74.3377 230.306 74.2381" stroke="white" stroke-miterlimit="10"/>
<path d="M151.061 141.937C158.626 131.694 165.643 119.077 173.157 108.918L173.19 108.885C173.19 108.885 173.191 108.885 173.207 108.868C176.541 104.369 179.959 100.368 183.509 97.2807C183.625 97.1811 183.708 97.0815 183.791 96.9653C184.023 96.6499 184.156 96.2847 184.172 95.9195C183.807 96.2183 183.459 96.5171 183.094 96.8159C182.53 97.2973 181.684 97.2476 181.203 96.6831C180.788 96.2017 180.772 95.5045 181.137 95.0065C181.203 94.9234 181.269 94.857 181.336 94.7906C181.701 94.4752 182.065 94.1598 182.447 93.861C181.916 93.7946 181.369 93.9606 180.938 94.3258C177.056 97.6958 173.489 101.929 170.055 106.561C162.341 117.002 155.324 129.636 147.959 139.579C147.959 139.579 147.942 139.613 147.926 139.613C146.283 141.837 144.624 143.929 142.932 145.838C143.679 145.655 144.492 145.838 145.089 146.402C145.686 146.95 145.935 147.73 145.835 148.461C147.627 146.435 149.369 144.244 151.078 141.937" stroke="white" stroke-miterlimit="10"/>
<path d="M183.691 94.4912C184.039 94.8896 184.205 95.3876 184.172 95.8856L184.17 95.8877C183.806 96.1858 183.441 96.4839 183.094 96.7821C182.53 97.2635 181.684 97.2137 181.203 96.6493C180.788 96.1678 180.772 95.4706 181.137 94.9726C181.186 94.8896 181.253 94.8232 181.336 94.7568C181.701 94.4414 182.082 94.126 182.447 93.8271C182.911 93.877 183.359 94.1094 183.691 94.4912Z" stroke="white" stroke-miterlimit="10"/>
<path d="M145.835 148.444C145.935 147.697 145.686 146.933 145.089 146.386C144.491 145.821 143.679 145.639 142.932 145.821C142.634 146.153 142.352 146.485 142.053 146.801C142.003 146.85 141.953 146.917 141.92 146.967C141.34 147.763 141.423 148.892 142.169 149.573C142.965 150.303 144.209 150.254 144.939 149.457C145.255 149.125 145.553 148.793 145.852 148.444" stroke="white" stroke-miterlimit="10"/>
<path d="M103.235 184.434C103.467 184.102 103.7 183.753 103.948 183.421C104.595 182.525 104.413 181.263 103.501 180.616C102.605 179.968 101.36 180.167 100.714 181.047C100.465 181.412 100.216 181.761 99.9671 182.11C99.9339 182.89 100.266 183.67 100.946 184.151C101.643 184.65 102.522 184.733 103.252 184.417" stroke="white" stroke-miterlimit="10"/>
<path d="M90.0634 224.939C90.1463 224.607 90.2293 224.259 90.3123 223.91C90.5445 222.997 90.0135 222.084 89.1011 221.851C88.421 221.669 87.7077 221.951 87.3096 222.482C87.1934 222.648 87.0938 222.847 87.0275 223.063C86.928 223.429 86.8452 223.777 86.7622 224.142C86.9779 224.757 87.4755 225.271 88.1556 225.437C88.8524 225.62 89.5657 225.404 90.0468 224.956" stroke="white" stroke-miterlimit="10"/>
<path d="M83.262 259.951C83.4113 259.685 83.5605 259.42 83.7098 259.171C84.0913 258.473 83.8425 257.594 83.1292 257.212C82.4822 256.863 81.7025 257.046 81.2712 257.627C81.2381 257.677 81.1884 257.743 81.1718 257.793C81.0391 258.042 80.8898 258.291 80.7405 258.556C80.7571 259.137 81.0723 259.685 81.6197 259.984C82.1506 260.266 82.7644 260.25 83.262 259.984" stroke="white" stroke-miterlimit="10"/>
<path d="M419.834 31.8733C402.349 28.1547 391.948 24.5358 368.292 19.4891C364.676 18.7255 360.96 17.9951 357.095 17.3311C357.808 17.7959 358.256 18.4267 358.206 19.0575C358.157 19.6884 357.609 20.1532 356.813 20.3856C360.545 21.033 364.162 21.7302 367.662 22.4773C367.695 22.4773 367.728 22.4773 367.762 22.4939C390.77 27.3911 398.418 30.8938 416.765 34.8116" stroke="white" stroke-miterlimit="10"/>
<path d="M291.254 448.683C291.254 448.683 291.171 448.816 291.137 448.883C290.972 449.198 290.806 449.513 290.623 449.829C290.623 450.626 291.055 451.406 291.801 451.804C292.548 452.203 293.427 452.136 294.09 451.721C294.256 451.406 294.439 451.09 294.604 450.775C295.119 449.812 294.77 448.617 293.808 448.102C292.912 447.621 291.818 447.903 291.254 448.7" stroke="white" stroke-miterlimit="10"/>
<path d="M61.9451 370.561C61.9451 370.561 61.9618 370.611 61.9783 370.644C71.8156 397.355 87.1105 434.574 99.7015 473.519C106.32 493.988 112.193 514.921 116.125 535.025C116.141 535.108 116.158 535.191 116.191 535.274C116.373 535.838 116.772 536.27 117.286 536.502C117.17 535.921 117.07 535.357 116.954 534.776C116.788 533.929 117.385 533.049 118.265 532.783C119.094 532.551 119.89 532.933 120.122 533.68C120.139 533.73 120.156 533.796 120.172 533.846C120.288 534.427 120.404 534.991 120.504 535.572C120.935 535.008 121.134 534.294 121.002 533.597C117.02 513.261 111.115 492.161 104.446 471.593C91.7885 432.465 76.4606 395.164 66.6731 368.569C66.5902 368.337 66.4573 368.121 66.308 367.955C66.391 368.171 66.4739 368.403 66.5569 368.619C66.5569 368.652 66.5735 368.669 66.5901 368.702C66.9551 369.831 66.2915 371.142 65.0971 371.674C63.8695 372.221 62.5259 371.723 62.0946 370.578C62.0116 370.362 61.9286 370.13 61.8457 369.914C61.8457 370.13 61.8788 370.346 61.9451 370.545" stroke="white" stroke-miterlimit="10"/>
<path d="M21.1531 284.818C21.1531 284.818 21.203 284.968 21.2361 285.034C27.5731 298.813 33.744 309.985 40.5953 323.465C47.3801 336.795 54.8618 352.433 63.9193 375.209C63.853 374.08 64.5166 372.951 65.6446 372.486C66.7727 372.022 68.0168 372.354 68.7302 373.217C59.6063 350.291 52.0416 334.471 45.207 321.041C38.306 307.462 32.1682 296.372 25.9307 282.793C25.5824 282.046 24.9189 281.548 24.1558 281.398C24.4378 282.013 24.7198 282.627 25.0019 283.241C25.0184 283.291 25.0349 283.324 25.0515 283.374C25.3169 284.121 24.9685 284.968 24.222 285.316C23.4423 285.681 22.5134 285.366 22.165 284.602C21.883 283.988 21.601 283.374 21.319 282.76C20.9872 283.391 20.9043 284.138 21.1531 284.851" stroke="white" stroke-miterlimit="10"/>
<path d="M62.8079 372.42C62.924 372.702 63.0402 372.984 63.1564 373.266C63.7536 374.727 65.4124 375.424 66.8723 374.843C68.2989 374.262 68.9956 372.652 68.4813 371.225C68.4813 371.191 68.4481 371.158 68.4481 371.125C68.332 370.843 68.2159 370.56 68.0998 370.278C67.287 369.315 65.91 368.934 64.6824 369.432C63.4382 369.93 62.7249 371.158 62.8245 372.436" stroke="white" stroke-miterlimit="10"/>
<path d="M-10.0175 213.386C-10.0175 213.386 -9.98423 213.469 -9.96764 213.518C-5.67112 222.848 -1.72299 231.829 2.24176 240.926C2.90531 239.847 3.55237 238.768 4.19933 237.689C0.5166 229.256 -3.1827 220.889 -7.18062 212.19C-7.29674 211.941 -7.47932 211.726 -7.69497 211.576C-7.57885 211.809 -7.47921 212.041 -7.37968 212.273C-7.36309 212.307 -7.34645 212.34 -7.32986 212.39C-7.09762 213.037 -7.39629 213.751 -8.02667 214.05C-8.69023 214.365 -9.48659 214.083 -9.78519 213.419C-9.88472 213.186 -10.0007 212.954 -10.1003 212.722C-10.1169 212.937 -10.1004 213.153 -10.0175 213.369M3.60216 244.014C9.15944 256.747 14.8162 269.828 21.5513 284.536C21.8001 284.055 22.1984 283.656 22.7292 283.407C23.26 283.158 23.8074 283.109 24.3383 283.208C17.2714 267.786 11.3822 254.157 5.55953 240.793C4.91257 241.856 4.2657 242.935 3.58555 243.997" stroke="white" stroke-miterlimit="10"/>
<path d="M21.1033 283.341C21.4351 284.055 21.7504 284.769 22.0822 285.499C22.4969 286.396 23.5751 286.761 24.4875 286.329C25.3667 285.914 25.7814 284.918 25.4662 284.055C25.4496 284.005 25.4331 283.955 25.3999 283.905C25.0682 283.192 24.7528 282.461 24.4211 281.747C23.8073 281.631 23.1273 281.698 22.4969 281.996C21.8665 282.295 21.3853 282.777 21.0867 283.341" stroke="white" stroke-miterlimit="10"/>
<path d="M-42.1501 144.094C-41.5529 143.978 -40.9225 144.276 -40.6737 144.857C-40.6737 144.891 -40.6571 144.907 -40.6405 144.94C-40.4414 145.521 -40.657 146.169 -41.1713 146.501C-41.1713 146.534 -41.1713 146.567 -41.1713 146.601C-40.9888 146.601 -40.74 146.601 -40.4248 146.667C-38.2351 146.999 -33.7064 148.659 -28.232 151.332C-19.9874 155.332 -9.45337 161.574 -0.196771 169.045C9.04324 176.482 16.9561 185.164 20.0748 193.813C20.0748 193.813 20.0748 193.846 20.0748 193.863C21.1033 196.735 21.6176 199.59 21.5346 202.412C21.7503 201.864 22.2979 201.499 22.9116 201.532C23.4923 201.565 23.9733 201.931 24.1558 202.445C24.1558 202.462 24.1724 202.495 24.189 202.512C24.3051 199.291 23.7078 196.087 22.5797 192.966C20.1412 186.21 15.1977 179.736 9.14278 173.792C0.05207 164.878 -11.6265 157.175 -21.5135 151.813C-26.4569 149.14 -30.9691 147.049 -34.5025 145.721C-36.2775 145.057 -37.8039 144.559 -39.048 144.276C-39.6784 144.144 -40.2423 144.044 -40.7565 144.011C-41.221 143.978 -41.6691 143.994 -42.1335 144.127" stroke="white" stroke-miterlimit="10"/>
<path d="M-50.3782 292.189C-41.9676 284.586 -27.7178 271.205 -13.8992 256.663C-8.55759 251.036 -3.2656 245.259 1.57835 239.564C1.27975 238.651 0.981087 237.738 0.682487 236.825C-13.7664 253.974 -32.5286 272.318 -45.2357 284.171C-45.3684 284.436 -45.5011 284.685 -45.6504 284.951C-47.1434 287.707 -48.7856 290.147 -50.3782 292.205M2.80591 234.285C3.10451 235.199 3.40298 236.128 3.70158 237.058C6.28944 233.953 8.74462 230.882 10.9841 227.894C17.9017 218.664 22.8951 210.297 24.1558 203.757C24.189 203.624 24.189 203.475 24.1558 203.358C24.1392 203.491 24.106 203.624 24.0894 203.757C23.9733 204.371 23.3429 204.786 22.696 204.686C22.1983 204.62 21.8332 204.271 21.7337 203.84C21.7005 203.69 21.7005 203.541 21.7337 203.392C21.7503 203.275 21.7835 203.143 21.8001 203.01C21.7338 203.126 21.6841 203.242 21.6675 203.375C20.5892 209.185 15.7783 217.469 8.92712 226.55C7.03598 229.073 4.97908 231.663 2.82252 234.285" stroke="white" stroke-miterlimit="10"/>
<path d="M2.15894 241.308C2.72296 242.587 3.30343 243.881 3.88404 245.16C4.6969 243.832 5.49327 242.52 6.27295 241.209C5.69234 239.914 5.11166 238.619 4.54764 237.324C3.76796 238.636 2.97179 239.964 2.15894 241.308Z" stroke="white" stroke-miterlimit="10"/>
<path d="M19.7764 201.815C19.992 202.429 20.5727 202.877 21.2528 202.911C22.1652 202.96 22.9614 202.247 22.9945 201.334C22.9945 201.134 23.0112 200.935 23.0277 200.736C23.0277 200.703 23.0111 200.67 22.9945 200.636C22.7623 199.989 22.1652 199.508 21.4353 199.474C20.6556 199.441 19.9754 199.906 19.71 200.587C19.71 200.769 19.7099 200.968 19.6934 201.151C19.6934 201.383 19.71 201.599 19.793 201.798" stroke="white" stroke-miterlimit="10"/>
<path d="M329.856 225.404C323.253 224.027 304.558 219.046 289.843 217.42M241.719 215.56C254.692 218.93 275.129 215.693 289.843 217.436M241.719 215.544C228.63 212.057 221.282 199.707 211.925 196.967C202.702 194.345 194.723 199.956 186.246 199.209M186.229 199.225C177.752 198.478 172.776 192.983 161.296 192.485C149.949 191.987 132.249 195.224 117.916 196.353C103.467 197.465 86.248 198.462 75.0339 199.341C63.8032 200.221 59.822 199.59 50.4658 201.466C41.1263 203.342 30.1445 208.322 19.1792 210.447C8.08124 212.556 -0.279555 212.307 -15.8565 213.933M-74.5812 219.91C-58.0089 220.408 -31.5662 215.427 -15.8565 213.917M-74.5646 219.91C-91.1535 219.295 -103.993 212.937 -115.589 210.314C-127.052 207.575 -134.915 203.458 -143.89 203.956C-152.748 204.338 -160.976 213.186 -168.955 212.688C-176.802 212.19 -182.16 202.346 -191.516 200.968C-200.989 199.458 -213.215 202.96 -225.424 203.956C-237.517 204.952 -251.734 205.816 -264.574 206.944C-277.546 208.073 -289.756 208.073 -302.479 210.314M-341.613 220.789C-329.403 219.163 -315.303 212.688 -302.463 210.314M-341.629 220.789C-353.723 222.533 -365.186 220.54 -375.288 220.54C-385.374 220.657 -390.749 220.408 -402.212 221.038C-413.691 221.536 -432.885 224.292 -444.232 223.91M-444.215 223.91C-455.446 223.412 -462.678 219.179 -469.778 218.548C-476.895 217.918 -481.507 218.416 -486.616 220.042C-491.726 221.537 -496.852 227.148 -500.335 227.895C-503.703 228.774 -504.068 225.537 -507.186 224.657C-510.289 223.778 -512.163 223.031 -519.147 222.533" stroke="white" stroke-miterlimit="10"/>
<path d="M329.955 222.3C331.614 222.3 332.974 223.644 332.974 225.321C332.974 226.998 331.631 228.342 329.955 228.342C328.28 228.342 326.936 226.998 326.936 225.321C326.936 223.644 328.28 222.3 329.955 222.3Z" stroke="white" stroke-miterlimit="10"/>
<path d="M333.721 214.797C326.737 213.419 307.162 208.057 292.332 206.314M292.332 206.33C277.501 204.704 257.81 208.073 244.589 204.704C231.5 201.334 222.891 189.099 213.17 186.36C203.565 183.488 195.469 188.485 186.86 187.854C178.25 187.356 172.892 182.99 161.545 182.741M161.562 182.741C150.215 182.492 133.377 185.364 118.795 186.36C104.197 187.472 85.1367 188.103 73.906 188.85C62.808 189.597 60.7012 188.966 51.8427 190.842C42.8681 192.718 31.5214 198.196 20.4234 200.072C9.20933 202.064 0.483591 201.068 -15.2261 202.446C-30.8196 203.824 -56.997 209.186 -73.2044 208.439C-89.5444 207.808 -101.638 200.703 -113.101 198.329C-124.563 195.839 -133.173 193.465 -141.899 193.963M-141.899 193.979C-150.625 194.345 -157.476 201.217 -165.455 200.587C-173.434 200.089 -179.556 191.971 -189.526 190.726C-199.496 189.481 -212.85 192.353 -225.059 193.1M-262.716 194.959C-249.992 193.963 -237.285 193.83 -225.059 193.083M-301.103 199.325C-288.379 196.835 -275.29 196.088 -262.699 194.959M-339.124 210.066C-327.28 208.073 -313.81 201.832 -301.103 199.342M-339.141 210.049C-350.985 211.925 -361.951 210.796 -372.053 211.178C-382.272 211.427 -388.509 211.427 -399.972 211.809C-411.435 212.307 -429.517 214.299 -440.864 213.552C-452.211 212.805 -460.804 208.19 -468.037 207.31C-475.402 206.43 -479.881 206.928 -484.874 208.306M-484.891 208.306C-489.751 209.684 -494.479 214.664 -497.598 215.544C-500.833 216.291 -500.966 213.934 -503.952 213.054C-506.938 212.19 -508.696 210.945 -515.796 210.315" stroke="white" stroke-miterlimit="10"/>
<path d="M333.821 211.692C335.479 211.692 336.84 213.037 336.84 214.714C336.84 216.39 335.496 217.735 333.821 217.735C332.145 217.735 330.802 216.39 330.802 214.714C330.802 213.037 332.145 211.692 333.821 211.692Z" stroke="white" stroke-miterlimit="10"/>
<path d="M333.605 214.431C326.621 212.937 306.797 207.575 291.967 205.948M291.95 205.948C276.987 204.321 257.678 207.94 244.456 204.57C231.368 201.317 222.774 188.849 212.921 185.977C203.2 182.973 194.723 187.97 185.997 187.223M160.301 181.993C171.648 182.242 177.138 186.608 185.98 187.239M160.301 181.977C148.954 181.744 132.382 184.732 117.667 185.728C103.086 186.724 83.5108 187.355 72.4128 188.102C61.1987 188.849 59.573 188.235 50.8472 190.227C42.0054 192.103 30.7747 197.581 19.8095 199.457M19.7929 199.441C8.7115 201.317 0.101755 200.188 -15.3591 201.566C-30.9361 202.943 -56.9972 208.305 -73.2046 207.807C-89.528 207.193 -101.505 200.204 -112.968 197.83C-124.564 195.456 -133.538 193.099 -142.397 193.464C-151.255 193.83 -158.223 200.702 -166.335 200.071C-174.314 199.573 -180.419 191.339 -190.521 190.094C-200.491 188.717 -214.326 191.589 -226.42 192.336C-238.629 193.083 -251.104 193.215 -263.695 194.211C-276.286 195.207 -289.507 196.087 -302.098 198.577C-314.689 201.184 -327.529 207.558 -339.124 209.55M-339.124 209.567C-350.604 211.443 -361.072 210.065 -371.041 210.314C-381.011 210.43 -387.382 210.43 -398.844 210.812M-398.844 210.796C-410.175 211.177 -427.892 213.418 -439.355 212.671C-450.701 211.924 -459.56 207.193 -467.158 206.313C-474.639 205.45 -479.251 206.064 -484.36 207.442C-489.47 208.936 -494.579 214.298 -497.946 215.045C-501.314 215.925 -501.563 213.302 -504.682 212.306M-516.775 209.301C-509.542 209.932 -507.8 211.426 -504.682 212.29" stroke="white" stroke-miterlimit="10"/>
<path d="M333.705 211.327C335.363 211.327 336.724 212.672 336.724 214.348C336.724 216.025 335.38 217.37 333.705 217.37C332.029 217.37 330.685 216.025 330.685 214.348C330.685 212.672 332.029 211.327 333.705 211.327Z" stroke="white" stroke-miterlimit="10"/>
<path d="M333.307 213.8C325.858 212.306 304.658 206.944 289.081 205.317C273.504 203.823 253.348 207.558 239.613 204.321M239.629 204.321C225.744 200.951 216.72 188.351 206.252 185.363C195.901 182.375 186.611 187.106 177.321 186.359C167.899 185.728 162.01 181.362 149.966 181.113M149.966 181.13C138.055 180.881 120.919 183.869 105.475 184.865C90.0306 185.861 69.0952 186.359 57.4498 187.106C45.6717 187.853 44.3613 187.355 35.3369 189.231C26.296 191.223 14.5178 196.834 3.13783 198.71C-8.37486 200.586 -17.1504 199.075 -33.3743 200.453C-49.4822 201.814 -76.8206 207.309 -93.8408 206.811C-110.861 206.313 -123.286 199.706 -135.462 197.332C-147.622 194.975 -157.443 192.468 -166.865 192.85M-192.379 199.324C-183.869 199.822 -176.42 193.215 -166.865 192.833M-218.042 189.347C-207.442 190.592 -200.906 198.71 -192.395 199.324M-218.025 189.347C-228.758 187.986 -243.29 190.841 -256.113 191.472C-268.937 192.086 -281.892 192.219 -294.981 193.215M-335.027 197.714C-322.071 195.091 -308.202 194.228 -294.981 193.232M-335.027 197.697C-347.983 200.204 -361.071 206.811 -372.849 208.803C-384.511 210.679 -394.979 208.936 -405.181 209.185C-415.4 209.318 -422.334 209.185 -434.112 209.567C-446.023 209.932 -464.204 212.306 -476.248 211.559M-506.075 205.068C-497.963 205.948 -488.275 210.679 -476.231 211.559M-506.091 205.068C-514.203 204.205 -519.313 204.819 -524.936 206.446C-530.56 207.94 -536.184 213.551 -539.983 214.431M-547.431 211.426C-544.03 212.555 -543.765 215.294 -539.966 214.414M-560.271 208.056C-552.673 208.687 -550.848 210.297 -547.448 211.426" stroke="white" stroke-miterlimit="10"/>
<path d="M333.572 210.696C335.231 210.696 336.591 212.041 336.591 213.718C336.591 215.394 335.248 216.739 333.572 216.739C331.897 216.739 330.553 215.394 330.553 213.718C330.553 212.041 331.897 210.696 333.572 210.696Z" stroke="white" stroke-miterlimit="10"/>
<path d="M330.536 213.187C323.071 211.825 301.937 206.58 285.348 204.704M285.331 204.704C268.759 202.961 246.099 205.584 231.451 202.214C216.67 198.711 207.281 186.725 196.913 184.235C186.545 181.612 178.532 187.107 169.275 186.858C160.152 186.476 154.345 182.475 142.053 182.359M95.2226 185.978C111.247 184.982 129.761 182.226 142.07 182.359M95.2226 185.995C79.1977 186.991 58.329 187.738 45.7546 188.485C33.3129 189.099 30.1277 188.485 19.909 190.228C9.69022 191.971 -2.88414 196.968 -15.7405 198.96C-28.4476 200.836 -39.0977 200.089 -56.7814 201.583C-74.3159 202.961 -103.065 208.323 -121.163 207.576M-165.787 196.835C-153.345 199.458 -139.394 206.696 -121.163 207.559M-165.804 196.835C-178.229 194.345 -186.523 191.589 -195.78 191.971C-205.036 192.353 -212.767 199.458 -221.476 199.209C-230.052 198.827 -236.671 191.224 -247.454 190.095C-258.088 188.966 -272.039 191.838 -285.725 192.469C-299.261 193.216 -314.606 192.967 -328.972 193.963M-371.539 198.329C-357.173 195.839 -343.354 194.959 -328.989 193.963M-371.539 198.346C-385.905 200.72 -401.515 206.331 -415.334 208.323C-429.152 210.331 -442.705 209.7 -454.583 210.199M-454.583 210.182C-466.461 210.813 -473.378 211.311 -486.5 211.809C-499.489 212.44 -520.341 214.315 -532.783 213.436C-545.225 212.689 -553.519 207.941 -561.25 206.945C-568.847 205.949 -573.675 206.314 -578.651 207.443C-583.628 208.572 -588.19 212.805 -591.093 213.436C-594.129 214.183 -593.581 212.307 -596.617 211.56M-609.192 209.451C-601.461 209.833 -599.653 210.946 -596.617 211.576" stroke="white" stroke-miterlimit="10"/>
<path d="M330.967 210.082C332.626 210.082 333.987 211.427 333.987 213.103C333.987 214.78 332.643 216.125 330.967 216.125C329.292 216.125 327.948 214.78 327.948 213.103C327.948 211.427 329.292 210.082 330.967 210.082Z" stroke="white" stroke-miterlimit="10"/>
<path d="M328.38 211.692C320.865 210.314 299.979 205.201 283.274 203.325C266.702 201.449 243.312 203.939 228.415 200.453M228.415 200.47C213.369 196.967 203.764 184.981 193.462 182.491C183.028 180.001 175.513 185.612 166.455 185.363M139.167 181.479C151.559 181.479 157.398 185.214 166.455 185.346M92.5187 184.981C108.527 183.985 126.907 181.362 139.167 181.495M42.4037 187.471C55.0777 186.841 76.3777 185.977 92.5353 184.981M16.0772 189.098C26.5116 187.471 29.5805 188.218 42.3871 187.471M16.0938 189.098C5.64278 190.709 -7.16391 195.705 -20.2525 197.581C-33.2085 199.324 -44.3396 198.577 -62.3054 199.955C-80.1218 201.449 -108.804 206.944 -127.184 206.197C-145.565 205.317 -160.047 198.079 -172.439 195.456C-184.964 192.833 -192.628 189.961 -201.818 190.343M-227.431 197.714C-218.938 197.963 -211.008 190.725 -201.818 190.36M-253.343 189.231C-242.627 190.227 -236.074 197.465 -227.448 197.714M-253.343 189.214C-263.927 188.086 -277.845 190.958 -291.63 191.588C-305.266 192.086 -321.424 191.588 -335.906 192.468C-350.521 193.348 -364.306 194.46 -378.788 196.834C-393.403 199.208 -409.146 204.703 -423.346 206.695C-437.546 208.571 -451.746 207.94 -463.856 208.687M-463.856 208.704C-476.115 209.451 -483.083 210.314 -496.304 210.945C-509.675 211.559 -531.124 213.319 -543.649 212.439M-543.632 212.439C-556.306 211.559 -564.252 206.944 -571.767 205.815C-579.282 204.703 -583.877 204.703 -588.754 205.699C-593.482 206.695 -597.795 211.177 -600.582 211.808M-605.608 209.949C-602.689 210.58 -603.385 212.572 -600.598 211.825M-618.133 207.94C-610.336 208.322 -608.528 209.185 -605.608 209.932" stroke="white" stroke-miterlimit="10"/>
<path d="M328.844 208.571C330.503 208.571 331.863 209.916 331.863 211.593C331.863 213.269 330.519 214.614 328.844 214.614C327.168 214.614 325.825 213.269 325.825 211.593C325.825 209.916 327.168 208.571 328.844 208.571Z" stroke="white" stroke-miterlimit="10"/>
<path d="M325.675 209.95C318.061 208.572 297.093 203.592 279.857 201.716C262.621 199.724 238.069 202.081 222.41 198.595M222.41 198.578C206.75 195.208 196.697 183.355 186.213 180.865C175.728 178.375 168.695 183.87 159.504 183.737C150.463 183.604 144.276 180.234 131.784 180.367M131.784 180.384C119.144 180.384 100.614 182.99 83.9585 183.87C67.3033 184.866 45.1904 185.729 31.969 186.36M4.38168 187.738C15.2972 186.111 18.5984 186.991 31.9524 186.36M-33.3746 195.839C-19.7386 194.096 -6.3679 189.232 4.39829 187.721M-33.3746 195.856C-47.0273 197.715 -58.9381 196.968 -77.4679 198.346C-95.9976 199.84 -125.725 205.202 -144.686 204.455C-163.796 203.708 -179.158 196.354 -191.799 193.731M-220.514 188.734C-211.324 188.352 -204.423 191.108 -191.782 193.731M-220.53 188.717C-229.853 189.099 -238.48 195.972 -247.239 195.839C-255.998 195.706 -262.318 188.983 -273.233 188.103M-312.284 190.61C-298.067 190.112 -284 187.24 -273.217 188.12M-358.815 190.975C-343.736 190.228 -326.65 190.975 -312.284 190.593M-358.832 190.975C-374.061 191.739 -387.979 192.851 -403.207 195.225C-418.287 197.482 -434.809 202.961 -449.739 204.837M-492.821 206.696C-480.03 205.949 -464.669 206.696 -449.739 204.82M-526.562 209.701C-512.777 208.954 -505.594 207.576 -492.821 206.712M-526.562 209.684C-540.364 210.431 -562.759 211.942 -575.831 211.062C-588.754 210.199 -596.8 205.335 -604.414 204.206C-612.028 202.961 -616.474 203.077 -621.219 203.957M-632.698 209.95C-629.961 209.203 -625.946 204.953 -621.202 203.957M-632.715 209.933C-635.286 210.564 -634.291 208.572 -637.16 207.941C-639.881 207.443 -641.756 206.696 -649.652 206.447" stroke="white" stroke-miterlimit="10"/>
<path d="M326.223 206.828C327.882 206.828 329.242 208.173 329.242 209.849C329.242 211.526 327.898 212.871 326.223 212.871C324.547 212.871 323.204 211.526 323.204 209.849C323.204 208.173 324.547 206.828 326.223 206.828Z" stroke="white" stroke-miterlimit="10"/>
<path d="M321.147 207.824C313.632 206.579 291.901 202.08 275.926 200.586C260.083 199.208 240.093 202.694 225.595 199.457C211.113 196.336 200.645 184.367 189.099 181.495C177.553 178.623 166.007 182.624 156.353 181.993C146.681 181.362 142.534 177.627 130.856 177.627C119.31 177.511 102.273 180.615 86.4305 181.495C70.4554 182.358 47.7784 182.242 35.3036 182.74M11.8303 184.616C20.9542 182.873 22.9615 183.238 35.3202 182.74M-19.7052 193.232C-8.42479 191.605 2.57366 186.243 11.8303 184.633M-19.7218 193.232C-31.1184 194.859 -40.2422 193.348 -56.35 194.477C-72.574 195.473 -99.6969 200.221 -116.999 199.839C-134.318 199.474 -147.34 194.112 -160.08 192.236M-160.064 192.219C-172.821 190.227 -183.421 188.484 -193.756 188.484C-204.091 188.617 -213.215 193.099 -222.073 192.601C-230.932 192.236 -236.174 186.492 -247.039 185.745C-257.772 184.998 -273.2 187.488 -286.753 188.119C-300.439 188.733 -314.805 188.866 -328.491 189.613C-342.309 190.36 -356.808 190.493 -369.15 192.485C-381.492 194.61 -391.96 200.47 -402.428 201.964C-412.895 203.342 -422.301 201.217 -431.956 201.217C-441.627 201.084 -448.727 201.217 -460.406 201.582C-472.084 201.831 -489.669 203.591 -502.011 202.96C-514.22 202.346 -524.555 198.345 -534.077 197.847C-543.616 197.349 -552.059 198.096 -559.309 200.088C-566.558 201.964 -572.995 208.455 -577.556 209.202C-582.118 210.082 -583.197 206.33 -586.813 204.836" stroke="white" stroke-miterlimit="10"/>
<path d="M321.479 204.703C323.137 204.703 324.498 206.048 324.498 207.724C324.498 209.401 323.154 210.746 321.479 210.746C319.803 210.746 318.459 209.401 318.459 207.724C318.459 206.048 319.803 204.703 321.479 204.703Z" stroke="white" stroke-miterlimit="10"/>
<path d="M310.298 203.226C301.87 202.097 278.994 197.847 259.701 196.104M194.656 193.116C212.655 196.353 240.558 194.494 259.685 196.104M151.525 176.632C163.685 178.873 176.491 189.862 194.656 193.099M121.682 179.387C131.419 179.138 139.365 174.39 151.525 176.648M121.682 179.371C112.126 179.62 107.415 177.744 93.7959 178.126C80.1764 178.507 58.6107 180.865 39.7989 181.745M-19.4067 183.869C-4.32741 183.488 20.9705 182.741 39.7823 181.745M-51.0252 183.753C-38.0527 182.624 -34.6519 184.135 -19.4067 183.886M-96.91 190.742C-81.1837 189.248 -63.9811 184.998 -51.0086 183.753M-96.9266 190.742C-112.819 192.236 -124.813 191.738 -145.731 192.867C-166.484 193.863 -200.707 197.731 -222.272 196.851C-243.838 195.988 -261.024 189.862 -275.141 187.621C-289.242 185.496 -296.541 183.62 -306.925 183.869C-317.31 184.118 -327.844 188.982 -337.416 189.115M-363.676 184.865C-351.682 185.114 -346.805 189.364 -337.399 189.115M-363.676 184.882C-375.852 184.749 -393.204 187.372 -409.578 187.87C-426.117 188.368 -445.094 187.505 -462.612 187.87M-462.596 187.87C-479.948 188.368 -496.653 188.999 -514.17 190.493C-531.522 191.987 -550.5 195.855 -566.873 196.851M-566.873 196.868C-583.263 197.864 -598.658 196.104 -612.609 196.735C-626.709 197.366 -635.303 199.723 -650.88 200.603M-705.855 201.715C-691.091 202.595 -666.44 201.466 -650.88 200.586M-705.872 201.715C-720.619 200.835 -730.357 196.22 -739.597 195.473C-748.837 194.726 -755.489 195.722 -761.162 197.349C-766.836 198.843 -770.884 203.84 -773.803 204.587C-776.723 205.334 -775.429 202.728 -778.349 202.097" stroke="white" stroke-miterlimit="10"/>
<path d="M311.26 200.088C312.918 200.088 314.279 201.433 314.279 203.109C314.279 204.786 312.935 206.131 311.26 206.131C309.584 206.131 308.24 204.786 308.24 203.109C308.24 201.433 309.584 200.088 311.26 200.088Z" stroke="white" stroke-miterlimit="10"/>
<path d="M281.98 224.292C296.562 225.919 316.021 231.148 322.739 232.526M235.117 222.416C248.089 225.404 267.415 222.532 281.997 224.292M235.1 222.416C222.26 219.295 214.281 208.206 204.56 205.832C194.955 203.458 185.98 209.202 177.255 208.073M177.271 208.073C168.529 206.961 163.801 200.105 152.205 199.225C140.726 198.478 122.66 202.08 108.195 203.209C93.8456 204.454 76.8917 205.699 65.6776 206.579M40.8773 208.953C49.9846 207.077 54.4635 207.575 65.6942 206.579M40.8607 208.936C31.6373 210.68 21.037 215.178 10.5694 217.17C0.101783 219.163 -7.13088 219.295 -22.0941 220.789C-36.9245 222.167 -62.6043 226.151 -79.0605 225.653C-95.5166 225.155 -108.622 219.793 -120.831 217.552C-133.041 215.311 -142.513 211.692 -152.118 211.941C-161.706 212.323 -170.565 220.059 -178.793 219.428M-201.121 208.073C-191.649 209.567 -186.905 218.797 -178.809 219.428M-201.105 208.073C-210.594 206.695 -223.168 209.933 -235.643 211.061C-248.118 212.19 -262.832 213.8 -275.921 214.929C-288.877 216.042 -301.484 215.676 -313.445 217.668M-313.445 217.685C-325.538 219.544 -337.134 225.288 -347.983 226.533C-358.832 227.778 -369.416 225.404 -378.772 225.155M-403.821 225.288C-392.856 224.657 -387.995 225.039 -378.755 225.155M-444.962 228.642C-433.615 228.891 -414.919 225.902 -403.821 225.272M-444.978 228.642C-456.325 228.525 -464.304 224.657 -471.902 224.159C-479.516 223.794 -484.625 224.292 -490.481 226.035M-490.465 226.035C-496.454 227.894 -503.056 234.253 -507.551 235.132C-512.03 235.996 -513.54 232.393 -517.521 231.264M-530.875 228.774C-523.527 229.272 -521.403 230.268 -517.538 231.264" stroke="white" stroke-miterlimit="10"/>
<path d="M322.856 229.422C324.514 229.422 325.875 230.767 325.875 232.443C325.875 234.12 324.531 235.465 322.856 235.465C321.18 235.465 319.836 234.12 319.836 232.443C319.836 230.767 321.18 229.422 322.856 229.422Z" stroke="white" stroke-miterlimit="10"/>
<path d="M194.043 235.116C238.053 236.859 292.896 242.105 312.653 243.466M49.3212 232.858C88.1227 236.095 150.414 233.356 194.043 235.099M-38.7159 216.025C-11.4936 218.266 10.5198 229.737 49.3046 232.858M-38.6993 216.025C-65.9383 213.767 -89.4448 220.142 -114.428 219.511C-139.411 218.897 -155.087 212.539 -189.028 211.908M-189.044 211.908C-222.604 211.277 -274.826 214.647 -317.725 215.776C-360.624 216.888 -411.717 218.017 -446.04 218.764M-522.498 220.524C-494.147 218.781 -479.981 219.528 -446.04 218.781M-522.498 220.507C-550.848 222.134 -583.661 226.5 -616.491 228.741C-648.938 230.866 -672.81 231.862 -718.695 233.356M-718.711 233.373C-764.215 234.867 -840.673 238.237 -890.29 237.606C-940.273 236.859 -981.679 231.63 -1017.11 229.256C-1052.55 226.749 -1075.67 222.516 -1103.28 222.765M-1181.97 230.252C-1158.1 230.883 -1130.5 222.898 -1103.26 222.765M-1181.99 230.252C-1205.84 229.754 -1218.53 220.889 -1246.14 219.644C-1273.74 218.399 -1309.92 221.769 -1347.6 222.765M-1347.58 222.765C-1384.89 223.761 -1431.14 224.757 -1470.3 225.886C-1509.85 226.882 -1545.65 227.131 -1582.96 229.123C-1619.89 231.115 -1658.67 236.344 -1693.74 237.722C-1728.81 238.967 -1763.5 236.975 -1793.34 236.975C-1822.8 236.975 -1837.35 236.975 -1871.29 237.606C-1905.61 238.353 -1964.92 240.959 -1998.49 240.843M-2074.21 236.61C-2053.32 236.992 -2032.44 240.594 -1998.48 240.843M-2123.82 238.984C-2108.16 237.49 -2095.11 236.361 -2074.22 236.61M-2123.82 238.967C-2139.87 240.461 -2157.38 245.209 -2169.33 245.707C-2181.25 246.321 -2186.1 243.217 -2196.55 242.337M-2232 240.478C-2210.73 240.727 -2207.02 241.474 -2196.57 242.354" stroke="white" stroke-miterlimit="10"/>
<path d="M319.554 241.258C321.213 241.258 322.573 242.602 322.573 244.279C322.573 245.956 321.229 247.3 319.554 247.3C317.879 247.3 316.535 245.956 316.535 244.279C316.535 242.602 317.879 241.258 319.554 241.258Z" stroke="white" stroke-miterlimit="10"/>
<path d="M299.813 248.114C293.709 246.852 277.004 241.374 263.036 240.129C249.201 238.867 230.372 241.125 216.405 240.494M179.378 236.394C194.457 238.635 202.437 239.88 216.405 240.511M179.395 236.394C164.315 234.269 141.373 230.036 125.912 227.662C110.567 225.172 101.726 222.051 87.0113 221.802C72.2969 221.553 54.3476 225.653 37.8914 226.284C21.4352 227.031 -1.37436 225.404 -11.7258 225.786M-11.7258 225.803C-22.0773 226.168 -22.0774 226.55 -24.0681 228.542C-26.0587 230.534 -22.1935 236.394 -23.8192 237.888C-25.3122 239.382 -24.1841 237.008 -33.5403 237.506C-42.8964 237.888 -64.462 239.996 -79.7901 240.378C-95.2509 240.627 -110.463 239.764 -126.173 239.133C-141.882 238.519 -158.09 236.394 -174.164 236.394C-190.256 236.261 -207.707 239.498 -222.786 238.635C-237.866 237.755 -251.203 232.393 -264.789 231.397C-278.376 230.285 -290.602 232.028 -303.939 232.526M-344.449 234.385C-336.47 233.007 -317.144 233.007 -303.939 232.509M-344.466 234.385C-352.561 235.63 -348.696 239.863 -352.312 240.494C-355.796 241.125 -362.398 239.133 -366.148 238.004C-369.764 237.008 -369.764 235.763 -374.376 234.385M-393.951 230.534C-384.727 230.667 -378.987 233.157 -374.376 234.402M-429.6 233.638C-418.253 233.389 -403.174 230.401 -393.951 230.517M-429.6 233.655C-440.947 234.02 -452.791 231.895 -462.264 232.526C-471.603 233.14 -476.348 234.385 -486.069 237.257C-495.806 239.996 -509.26 247.483 -520.607 249.475" stroke="white" stroke-miterlimit="10"/>
<path d="M299.913 245.01C301.572 245.01 302.932 246.354 302.932 248.031C302.932 249.708 301.588 251.052 299.913 251.052C298.237 251.052 296.894 249.708 296.894 248.031C296.894 246.354 298.237 245.01 299.913 245.01Z" stroke="white" stroke-miterlimit="10"/>
<path d="M257.545 242.869C250.063 242.254 228.498 240.013 213.037 238.885C197.593 237.639 177.769 239.134 164.929 235.896M136.131 219.18C141.24 221.055 152.089 232.51 164.929 235.88M134.522 225.04C136.761 224.907 131.038 217.436 136.148 219.18M122.296 220.308C131.021 220.059 132.15 225.289 134.505 225.04M122.312 220.308C113.703 220.557 96.7489 224.425 82.665 226.666C68.4483 228.908 50.864 232.277 37.4104 233.523M1.62806 234.386C16.9562 234.004 23.9402 234.884 37.4104 233.506M-54.3262 235.382C-37.6212 235.382 -13.5674 234.635 1.64466 234.386M-54.3262 235.398C-71.164 235.515 -82.1292 233.639 -98.8342 234.768C-115.539 235.88 -137.967 242.371 -154.424 242.122M-154.44 242.122C-170.764 241.74 -186.59 235.631 -197.439 232.892C-208.155 230.153 -213.762 225.538 -219.12 225.538C-224.478 225.67 -225.49 232.892 -229.223 233.274M-241.681 227.53C-234.581 228.028 -232.955 233.639 -229.206 233.274M-241.698 227.53C-248.798 226.915 -259.647 228.526 -271.856 229.655C-284.199 230.783 -299.162 232.028 -315.236 234.27C-331.444 236.511 -350.753 241.624 -368.835 243.367C-386.917 244.994 -408.847 244.861 -423.811 244.496M-423.811 244.479C-438.757 244.114 -448.611 241.242 -458.83 240.993C-469.181 240.744 -474.291 241.624 -485.505 242.62C-496.719 243.732 -514.668 247.218 -526.015 247.351" stroke="white" stroke-miterlimit="10"/>
<path d="M257.645 239.764C259.303 239.764 260.664 241.108 260.664 242.785C260.664 244.462 259.32 245.806 257.645 245.806C255.969 245.806 254.625 244.462 254.625 242.785C254.625 241.108 255.969 239.764 257.645 239.764Z" stroke="white" stroke-miterlimit="10"/>
<path d="M308.29 314.152C303.297 313.787 291.585 313.04 277.866 311.546M277.883 311.546C264.164 310.168 238.866 305.935 226.142 305.32C213.302 304.573 216.786 307.196 201.209 307.312C185.748 307.429 159.571 311.048 133.145 306.067M43.0173 277.68C66.0759 280.536 106.851 301.203 133.145 306.051M-5.73746 289.002C12.9582 289.135 19.826 274.941 43.0007 277.68M-5.72086 289.018C-24.5493 289.018 -58.8385 279.921 -69.5549 277.315C-80.1552 274.576 -78.2974 267.985 -69.6877 273.082C-61.0781 278.062 -30.0402 302.083 -17.9469 307.561M2.87208 305.437C8.23029 305.055 -5.85356 312.907 -17.9469 307.545M2.87208 305.453C-2.48614 305.686 -32.2797 308.176 -49.8639 309.305C-67.4315 310.301 -83.7717 310.433 -102.467 311.795M-102.467 311.778C-121.047 313.156 -143.359 317.638 -161.806 317.256C-180.269 316.758 -185.992 313.405 -213.049 309.421C-239.973 305.569 -296.823 297.103 -323.747 293.866C-350.67 290.629 -363.892 289.882 -374.608 289.882M-388.062 294.613C-387.182 288.52 -385.324 290.015 -374.591 289.882M-380.099 325.972C-386.95 323.482 -388.957 300.573 -388.078 294.613M-346.938 310.052C-353.424 314.401 -373.248 328.595 -380.099 325.988M-340.816 299.593C-337.084 301.967 -340.319 305.569 -346.921 310.052M-340.833 299.577C-344.566 297.219 -358.285 296.09 -369.499 295.974C-380.597 295.725 -398.413 298.348 -407.521 298.713C-416.495 298.962 -415.234 295.725 -423.844 297.717M-459.129 310.301C-444.663 305.951 -432.454 299.593 -423.844 297.734M-510.355 323.863C-469.596 322.236 -473.461 314.65 -459.112 310.301" stroke="white" stroke-miterlimit="10"/>
<path d="M308.39 317.173C310.057 317.173 311.409 315.82 311.409 314.151C311.409 312.483 310.057 311.13 308.39 311.13C306.722 311.13 305.371 312.483 305.371 314.151C305.371 315.82 306.722 317.173 308.39 317.173Z" stroke="white" stroke-miterlimit="10"/>
<path d="M218.03 325.124C208.79 322.634 180.506 313.67 162.175 310.067C143.728 306.465 119.177 305.469 107.83 303.477M107.814 303.477C96.3506 301.369 86.7456 296.886 93.7295 297.883C100.713 298.879 138.238 311.063 149.584 309.569C160.915 308.075 164.282 291.026 161.794 288.669M134.505 295.525C146.101 293.666 159.306 286.445 161.81 288.686M91.9878 299.626C109.937 297.634 122.91 297.385 134.489 295.525M26.6774 307.959C55.7245 304.224 74.0385 301.734 92.0042 299.626M26.6608 307.959C-2.38638 311.811 -50.2455 325.373 -82.1625 322.385C-114.196 319.264 -141.368 294.015 -165.057 289.914C-188.73 285.814 -207.691 296.023 -224.014 297.634C-240.47 299.128 -258.917 297.135 -263.413 299.377C-267.892 301.734 -260.045 308.822 -250.938 311.312C-241.847 313.919 -215.67 317.272 -208.686 314.915M-208.802 296.77C-204.439 299.509 -201.569 312.441 -208.686 314.931M-234.731 297.999C-222.388 296.87 -213.165 293.898 -208.802 296.754M-282.722 303.361C-262.401 297.766 -247.073 299.128 -234.731 298.015M-282.722 303.344C-302.911 309.071 -327.097 327.1 -356.145 331.831C-385.324 336.562 -429.567 335.931 -457.121 331.582C-484.791 327.233 -506.49 310.067 -521.569 305.834" stroke="white" stroke-miterlimit="10"/>
<path d="M218.13 328.163C219.797 328.163 221.149 326.81 221.149 325.141C221.149 323.473 219.797 322.12 218.13 322.12C216.462 322.12 215.111 323.473 215.111 325.141C215.111 326.81 216.462 328.163 218.13 328.163Z" stroke="white" stroke-miterlimit="10"/>
<path d="M345.566 377.267C339.577 377.267 323.618 381.999 309.534 377.516M261.178 350.242C269.406 353.611 295.467 373.034 309.551 377.516M259.917 357.23C277.501 353.744 252.817 346.888 261.161 350.258M259.934 357.23C242.466 360.833 195.22 376.902 155.706 371.424C116.174 366.079 57.0848 328.959 22.9283 324.726M-49.25 345.51C-24.433 346.888 -11.2282 320.36 22.9283 324.71M-126.04 316.625C-116.435 320.991 -74.0504 344.149 -49.25 345.527M-126.057 316.625C-135.778 312.143 -131.166 313.139 -106.979 318.866C-82.9089 324.593 -7.74458 347.386 18.5654 350.872M18.582 350.872C44.7593 354.359 53.8498 341.908 50.3662 339.916C46.7498 337.791 12.2118 339.534 -2.86752 338.422C-17.8307 337.293 -19.2077 326.586 -39.6452 333.06M-39.6618 333.06C-59.9832 339.534 -105.602 373.416 -124.929 377.4C-144.371 381.517 -118.442 361.215 -155.966 357.347C-193.607 353.611 -308.8 357.977 -350.189 354.857M-350.206 354.857C-391.462 351.619 -394.946 341.41 -404.053 338.173C-413.161 334.936 -411.17 325.092 -404.684 335.683C-398.33 346.141 -382.488 395.462 -365.285 401.189C-348.215 406.916 -314.307 376.902 -301.833 369.93C-289.242 363.074 -287.367 363.688 -290.237 359.837C-293.09 355.853 -309.546 351.619 -319.151 346.257M-348.082 327.465C-340.236 328.329 -328.756 340.912 -319.151 346.274M-366.397 341.277C-354.801 334.305 -355.929 326.586 -348.066 327.449M-366.413 341.294C-378.009 348.266 -395.709 362.327 -417.523 369.183C-439.222 376.155 -446.687 379.641 -496.934 382.762" stroke="white" stroke-miterlimit="10"/>
<path d="M345.665 380.305C347.332 380.305 348.684 378.953 348.684 377.284C348.684 375.615 347.332 374.263 345.665 374.263C343.997 374.263 342.646 375.615 342.646 377.284C342.646 378.953 343.997 380.305 345.665 380.305Z" stroke="white" stroke-miterlimit="10"/>
<path d="M110.7 369.93C130.524 376.288 169.043 393.47 180.639 398.218M61.4476 360.584C68.9292 360.7 90.7435 363.705 110.683 369.93M61.4476 360.601C53.9826 360.468 46.6171 365.697 65.6943 369.316C84.8876 372.802 147.975 387.627 176.143 381.65M234.486 333.425C229.128 344.017 204.328 375.658 176.143 381.634M234.486 333.442C239.844 322.718 219.639 322.353 208.176 317.987C196.713 313.621 183.874 299.045 165.676 307.146M165.659 307.146C147.461 315.248 145.852 351.753 98.9717 366.577C52.2242 381.269 -59.4688 402.451 -115.191 395.728C-170.913 389.005 -204.954 335.932 -235.61 326.088C-266.15 316.244 -283.983 332.429 -298.813 336.546C-313.644 340.663 -330.482 341.908 -324.742 350.624C-319.002 359.223 -292.576 384.506 -264.408 388.374C-236.107 392.225 -177.764 382.016 -155.203 373.665M-129.026 338.671C-129.026 344.896 -132.642 365.465 -155.203 373.682M-155.071 336.413C-143.857 337.791 -128.893 332.429 -129.01 338.655M-195.846 330.321C-170.913 320.361 -166.169 335.052 -155.087 336.43M-304.288 396.342C-255.798 383.377 -220.646 340.281 -195.829 330.304M-486.55 408.062C-440.433 414.669 -352.794 409.307 -304.304 396.359" stroke="white" stroke-miterlimit="10"/>
<path d="M180.722 401.272C182.389 401.272 183.741 399.919 183.741 398.251C183.741 396.582 182.389 395.229 180.722 395.229C179.054 395.229 177.703 396.582 177.703 398.251C177.703 399.919 179.054 401.272 180.722 401.272Z" stroke="white" stroke-miterlimit="10"/>
<path d="M355.917 393.735C349.431 394.349 331.731 401.952 317.398 396.972C303.065 391.992 277.136 368.585 269.788 363.721C262.306 358.99 293.477 362.725 273.155 368.203C252.834 373.681 188.137 402.201 148.008 396.723C107.88 391.245 65.7441 341.177 32.3341 335.317C-0.943212 329.341 -24.1345 362.343 -52.0536 360.982M-52.0702 360.982C-79.9893 359.488 -123.983 331.715 -135.33 326.602C-146.677 321.373 -143.558 323.365 -120.118 329.839M-120.118 329.856C-96.8105 336.33 -27.137 361.978 5.02885 365.348C37.1947 368.585 69.8583 351.154 73.0931 349.527M73.0931 349.511C76.328 347.768 39.4343 357.612 24.6038 355.371C9.77336 353.014 2.78936 329.092 -15.9063 335.45C-34.602 341.924 -38.6 389.386 -87.7031 394.117C-136.823 398.715 -263.844 367.091 -310.459 363.472C-356.941 359.853 -350.222 374.545 -367.043 372.436M-367.06 372.436C-383.997 370.195 -404.07 354.508 -411.8 350.274C-419.531 345.908 -421.654 334.454 -413.426 346.539M-362.316 423.002C-383.002 416.644 -405.198 358.608 -413.426 346.523M-362.316 423.019C-341.613 429.377 -303.226 393.37 -289.391 384.903C-275.556 376.437 -275.688 376.553 -279.421 372.071M-311.703 358.359C-303.342 364.584 -283.153 367.705 -279.421 372.055M-329.536 335.068C-323.431 336.429 -320.064 352.25 -311.72 358.359M-348.348 350.523C-335.757 341.675 -335.641 333.84 -329.519 335.085M-405.447 388.506C-382.007 379.907 -361.071 359.355 -348.364 350.523M-489.453 401.338C-435.473 400.209 -429.003 396.972 -405.43 388.506" stroke="white" stroke-miterlimit="10"/>
<path d="M356.016 396.773C357.684 396.773 359.036 395.42 359.036 393.752C359.036 392.083 357.684 390.73 356.016 390.73C354.349 390.73 352.997 392.083 352.997 393.752C352.997 395.42 354.349 396.773 356.016 396.773Z" stroke="white" stroke-miterlimit="10"/>
<path d="M97.1137 389.884C116.805 396.242 153.217 413.191 164.431 417.79M97.0971 389.884C77.4061 383.526 53.8499 378.911 46.3683 379.293C38.7706 379.791 29.7794 388.639 51.9754 392.507M51.9754 392.523C74.304 396.508 146.598 410.585 180.008 402.982C213.418 395.379 244.456 359.488 252.552 346.905C260.531 334.189 239.214 332.446 228.498 326.967C217.897 321.605 207.928 305.038 188.601 314.384C169.159 323.73 165.161 365.979 112.309 383.044M112.326 383.044C59.4734 400.243 -67.3154 424.662 -128.644 417.059C-189.974 409.456 -223.268 349.279 -255.798 337.559C-288.213 325.838 -308.899 341.659 -323.365 346.523M-342.193 366.593C-350.422 355.62 -337.714 351.387 -323.365 346.54M-274.245 412.062C-307.158 407.829 -334.082 377.55 -342.177 366.577M-274.262 412.062C-241.349 416.428 -171.66 401.969 -144.736 392.258C-117.679 382.414 -113.698 360.351 -112.321 353.379C-110.944 346.274 -126.156 351.752 -136.624 350.009C-147.224 348.266 -149.215 332.562 -175.525 343.037C-201.702 353.512 -239.84 398.118 -293.82 412.826M-499.755 431.253C-448.644 437.611 -347.917 427.518 -293.82 412.809" stroke="white" stroke-miterlimit="10"/>
<path d="M164.514 420.861C166.182 420.861 167.533 419.508 167.533 417.84C167.533 416.171 166.182 414.818 164.514 414.818C162.847 414.818 161.495 416.171 161.495 417.84C161.495 419.508 162.847 420.861 164.514 420.861Z" stroke="white" stroke-miterlimit="10"/>
<path d="M355.668 394.366C348.933 394.98 329.74 403.331 315.158 398.101C300.693 392.872 275.395 368.203 268.411 362.974C261.56 357.745 292.597 360.982 273.653 366.709C254.692 372.437 194.491 402.334 154.976 397.354C115.461 392.374 70.5882 342.672 36.5644 336.944C2.40786 331.35 -21.0322 365.099 -49.6979 363.356C-78.2473 361.596 -123.867 331.715 -135.081 326.353C-146.295 321.008 -140.688 325.241 -116.883 331.217C-92.9451 337.077 -24.1509 358.99 8.01497 361.862M8.01497 361.845C40.0481 364.584 73.9557 349.777 75.6975 348.15C77.5721 346.523 34.1921 354.375 18.6151 351.885M18.6151 351.902C3.15424 349.279 0.666048 325.739 -17.532 332.96C-35.6139 340.065 -42.3491 389.502 -90.208 394.615C-138.067 399.712 -259.099 366.958 -304.354 363.472C-349.725 359.986 -344.997 375.558 -362.316 373.433M-362.316 373.449C-379.634 371.457 -400.088 355.886 -408.433 351.022C-416.661 346.291 -420.145 332.844 -412.049 344.796C-403.954 356.749 -380.265 415.914 -359.827 422.77M-289.391 385.651C-302.977 393.37 -339.373 429.493 -359.811 422.77M-289.391 385.634C-275.804 377.782 -275.191 379.409 -278.177 375.923C-281.163 372.437 -298.979 371.573 -307.589 364.468M-307.605 364.468C-316.082 357.247 -323.796 336.579 -329.287 332.96C-334.894 329.225 -330.913 333.707 -340.634 342.306M-387.995 384.273C-366.065 374.811 -350.471 350.889 -340.634 342.29M-472.25 399.23C-415.914 396.74 -409.926 393.752 -387.979 384.29" stroke="white" stroke-miterlimit="10"/>
<path d="M355.768 397.404C357.435 397.404 358.787 396.051 358.787 394.383C358.787 392.714 357.435 391.361 355.768 391.361C354.1 391.361 352.749 392.714 352.749 394.383C352.749 396.051 354.1 397.404 355.768 397.404Z" stroke="white" stroke-miterlimit="10"/>
<path d="M103.583 392.374C123.905 398.981 161.794 417.043 173.389 421.907M51.4777 382.413C58.5777 382.032 83.2621 385.9 103.583 392.39M61.2154 394.864C38.4056 391.627 44.5104 382.779 51.4943 382.397M61.1988 394.864C84.0085 398.101 155.822 410.684 188.353 401.72C220.883 392.623 249.317 354.491 256.417 340.779M231.484 318.982C242.449 324.958 263.65 326.951 256.417 340.796M190.227 304.888C209.172 295.293 220.402 312.989 231.484 318.966M190.227 304.905C171.283 314.5 169.773 357.23 118.049 376.553C66.192 395.86 -58.3407 426.638 -120.549 420.412M-120.533 420.412C-182.741 414.187 -221.393 351.37 -255.168 339.285C-288.943 327.067 -309.016 342.655 -323.232 347.635C-337.565 352.499 -350.786 357.844 -340.933 368.818C-331.079 379.791 -297.918 409.821 -264.391 413.307M-139.112 389.27C-165.406 399.994 -230.733 416.677 -264.391 413.324M-106.83 348.382C-107.958 356.101 -112.819 378.413 -139.112 389.253M-106.83 348.399C-105.702 340.547 -121.544 345.029 -132.261 342.539C-143.11 339.916 -145.598 322.087 -171.527 333.06C-197.339 344.033 -234.482 391.394 -287.715 408.211M-491.029 434.125C-439.288 439.354 -340.949 425.027 -287.715 408.194" stroke="white" stroke-miterlimit="10"/>
<path d="M173.489 424.978C175.156 424.978 176.508 423.625 176.508 421.957C176.508 420.288 175.156 418.936 173.489 418.936C171.822 418.936 170.47 420.288 170.47 421.957C170.47 423.625 171.822 424.978 173.489 424.978Z" stroke="white" stroke-miterlimit="10"/>
<path d="M350.343 390.017C342.829 390.399 322.026 397.122 305.404 391.893M305.42 391.876C288.649 386.78 259.751 362.227 250.213 358.99C240.674 355.62 267.415 367.457 248.338 372.072C229.112 376.57 181.286 391.76 135.335 386.033C89.3834 380.173 14.4015 341.294 -27.2201 337.061C-68.8416 332.828 -83.4232 363.107 -114.063 360.484M-114.063 360.501C-144.703 357.878 -202.067 325.241 -211.456 321.622C-220.696 318.003 -204.953 333.707 -169.984 338.688M-169.984 338.671C-135.015 343.784 -32.8602 350.258 -1.78917 351.636C29.2652 352.881 24.5041 347.901 16.558 346.656M-49.1838 344.05C-31.2677 345.677 8.76126 345.428 16.558 346.673M-49.1838 344.033C-67.2491 342.29 -63.3506 328.711 -91.3858 336.563C-119.404 344.282 -159.732 386.531 -217.379 391.013C-274.892 395.495 -390.484 367.34 -436.866 363.223M-495.392 366.228C-477.758 370.345 -483.249 359.123 -436.866 363.24M-542.355 338.804C-548.559 332.579 -512.876 362.227 -495.392 366.212M-457.818 403.729C-476.464 395.761 -536.134 345.046 -542.355 338.82M-430.662 386.647C-443.518 391.378 -439.189 411.681 -457.834 403.713M-430.662 386.664C-417.938 382.049 -386.154 378.811 -381.243 375.691C-376.333 372.57 -390.351 374.313 -401.333 368.087C-412.165 361.729 -438.326 343.286 -446.703 337.808M-450.884 334.454C-443.651 329.225 -454.931 332.213 -446.687 337.824M-489.751 369.582C-467.506 359.986 -458.1 339.8 -450.884 334.438M-584.408 391.76C-517.654 386.282 -512.014 379.177 -489.768 369.582" stroke="white" stroke-miterlimit="10"/>
<path d="M350.907 393.038C352.575 393.038 353.926 391.685 353.926 390.016C353.926 388.348 352.575 386.995 350.907 386.995C349.24 386.995 347.888 388.348 347.888 390.016C347.888 391.685 349.24 393.038 350.907 393.038Z" stroke="white" stroke-miterlimit="10"/>
<path d="M179.893 416.927C168.164 412.312 129.777 395.363 109.456 389.137C89.2673 382.895 65.3296 379.16 58.3457 379.409M58.3291 379.409C51.3452 379.542 46.2358 387.759 67.6852 390.382C89.002 393.122 156.436 404.46 186.86 395.612C217.284 386.631 243.328 350.126 250.063 336.912C256.799 323.697 237.854 321.954 227.005 316.227M184.371 302.781C203.449 293.567 216.04 310.5 227.005 316.244M112.691 371.557C162.557 352.981 165.294 311.994 184.371 302.764M-114.925 414.437C-54.7243 420.297 62.7086 390.266 112.691 371.574M-248.814 336.414C-215.537 347.885 -175.259 408.56 -114.925 414.42M-248.814 336.43C-281.976 324.959 -300.057 340.912 -314.39 345.644C-328.856 350.508 -344.565 354.625 -335.209 364.967M-258.287 407.83C-290.568 404.709 -325.853 375.309 -335.193 364.967M-258.303 407.83C-226.005 410.934 -165.803 394.25 -141.617 383.526C-117.43 372.819 -113.565 351.255 -113.067 343.651C-112.57 336.165 -127.782 340.663 -138.747 338.289M-138.73 338.289C-149.712 335.916 -153.196 318.717 -178.627 329.441C-204.19 340.165 -240.47 386.282 -291.448 402.601M-484.924 427.634C-435.058 432.498 -342.442 419.035 -291.464 402.584" stroke="white" stroke-miterlimit="10"/>
<path d="M179.975 419.981C181.643 419.981 182.995 418.628 182.995 416.96C182.995 415.291 181.643 413.938 179.975 413.938C178.308 413.938 176.956 415.291 176.956 416.96C176.956 418.628 178.308 419.981 179.975 419.981Z" stroke="white" stroke-miterlimit="10"/>
<path d="M246.828 392.275C242.714 392.657 231.733 394.018 222.509 394.632C213.402 395.13 204.427 397.62 191.836 395.877C179.245 394.151 159.173 386.714 147.328 384.107C135.368 381.501 128.384 381.003 120.405 380.505M99.4528 381.136C109.174 379.891 112.425 380.023 120.405 380.521M99.4528 381.119C89.7317 382.364 77.5056 386.448 62.1774 388.191C46.7166 390.05 20.9043 392.524 7.06917 391.91M-20.485 384.605C-10.2662 384.854 -6.64984 391.295 7.06917 391.926M-20.485 384.589C-30.7037 384.472 -44.2901 388.938 -54.1439 390.664C-64.1304 392.408 -69.2396 393.387 -79.7072 394.881C-90.1748 396.491 -104.01 399.728 -117.231 399.845C-130.453 399.845 -144.786 397.371 -159.251 395.512M-204.257 389.054C-194.038 389.303 -173.717 393.769 -159.251 395.495M-204.257 389.071C-214.492 388.822 -212.618 393.287 -220.597 393.902C-228.576 394.516 -242.279 392.657 -252.381 392.906C-262.368 393.155 -269.103 394.151 -280.815 395.263M-280.798 395.263C-292.394 396.375 -308.734 399.977 -322.071 399.479C-335.541 399.098 -348.497 393.404 -361.221 392.906C-373.812 392.291 -387.033 395.761 -398.131 396.375C-409.096 396.989 -419.581 396.624 -427.427 396.624M-427.427 396.608C-435.274 396.608 -438.89 396.491 -445.376 396.491C-451.863 396.491 -457.851 397.238 -466.577 396.74M-497.88 392.906C-489.403 392.789 -475.319 396.126 -466.594 396.757M-497.864 392.889C-506.357 393.138 -512.329 394.997 -517.571 398.102C-522.681 401.09 -521.934 409.274 -528.785 411" stroke="white" stroke-miterlimit="10"/>
<path d="M246.928 395.279C248.595 395.279 249.947 393.926 249.947 392.258C249.947 390.589 248.595 389.236 246.928 389.236C245.261 389.236 243.909 390.589 243.909 392.258C243.909 393.926 245.261 395.279 246.928 395.279Z" stroke="white" stroke-miterlimit="10"/>
<path d="M223.886 383.974C219.025 384.721 205.19 387.344 194.839 388.705C184.487 390.199 173.522 394.549 161.794 392.44C150.065 390.448 131.121 378.761 124.137 376.52M119.907 378.878C125.398 378.263 117.17 374.279 124.153 376.52M119.89 378.878C114.416 379.492 102.074 378.131 91.2246 380.123C80.5082 381.982 70.1567 388.456 55.3262 390.697C40.363 392.806 16.0603 394.316 1.84362 393.187C-12.5058 392.075 -18.1128 385.103 -30.4549 384.107C-42.797 383.111 -60.4974 386.348 -72.093 387.344C-83.8213 388.473 -88.5493 388.722 -100.394 390.581M-100.394 390.565C-112.238 392.308 -128.562 397.537 -143.525 397.786C-158.604 398.151 -177.067 394.549 -190.654 392.557M-224.943 386.348C-216.217 386.73 -204.24 390.697 -190.654 392.573M-242.76 390.083C-235.278 389.585 -233.536 385.983 -224.926 386.348M-242.76 390.067C-250.125 390.448 -260.095 388.456 -269.318 389.203C-278.674 389.834 -286.786 392.191 -298.498 393.935C-310.343 395.678 -324.808 400.027 -340.136 399.662C-355.465 399.28 -375.288 393.187 -390.5 391.942C-405.828 390.697 -420.161 392.308 -431.641 392.059C-443.104 391.677 -450.834 390.565 -459.444 390.316C-467.921 390.067 -474.788 389.95 -482.884 390.448C-491.112 390.946 -498.709 393.187 -508.314 393.187" stroke="white" stroke-miterlimit="10"/>
<path d="M223.985 386.929C225.653 386.929 227.004 385.577 227.004 383.908C227.004 382.239 225.653 380.887 223.985 380.887C222.318 380.887 220.966 382.239 220.966 383.908C220.966 385.577 222.318 386.929 223.985 386.929Z" stroke="white" stroke-miterlimit="10"/>
<path d="M209.42 506.952C205.555 507.068 192.715 507.45 186.229 507.815M170.52 509.193C179.61 509.193 179.743 508.197 186.229 507.832M170.52 509.176C161.545 509.176 138.105 508.927 132.249 507.815C126.509 506.703 137.989 504.097 135.616 502.237C133.128 500.378 124.27 496.659 117.667 496.908M96.3507 504.229C106.072 503.233 111.181 497.29 117.667 496.925M96.3671 504.229C86.646 505.225 72.4294 503.615 59.5896 502.868C46.8825 502.121 41.1428 499.399 19.5772 500.013C-1.87221 500.644 -44.6218 504.844 -69.5549 506.587M-130.021 510.554C-114.942 508.828 -94.488 508.33 -69.5715 506.587M-130.005 510.538C-144.968 512.281 -148.087 516.614 -159.55 517.112C-171.145 517.61 -191.599 514.638 -199.197 513.642C-206.928 512.646 -203.427 511.401 -205.551 511.285M-205.551 511.301C-207.541 511.052 -207.541 513.277 -211.406 512.663C-215.156 512.048 -222.256 508.197 -228.112 507.334M-228.112 507.317C-233.968 506.57 -238.082 507.45 -246.558 508.064C-254.903 508.695 -267.494 513.144 -278.592 511.168C-289.806 509.06 -292.676 495.066 -313.495 496.178M-313.511 496.161C-334.314 497.29 -376.582 514.256 -403.755 517.859C-431.044 521.461 -462.463 517.361 -476.796 517.859M-476.812 517.859C-491.145 518.357 -485.405 520.349 -489.768 520.714C-494.131 521.096 -497.366 521.594 -503.106 520.1M-523.792 511.534C-520.557 512.646 -508.713 518.606 -503.106 520.083M-523.809 511.534C-527.16 510.421 -524.804 510.67 -523.178 513.277C-521.553 515.883 -512.694 526.408 -514.071 527.155M-531.639 517.991C-524.539 520.216 -515.431 527.902 -514.071 527.172" stroke="white" stroke-miterlimit="10"/>
<path d="M209.52 509.94C211.188 509.94 212.539 508.587 212.539 506.919C212.539 505.25 211.188 503.897 209.52 503.897C207.853 503.897 206.501 505.25 206.501 506.919C206.501 508.587 207.853 509.94 209.52 509.94Z" stroke="white" stroke-miterlimit="10"/>
<path d="M255.173 504.894C251.556 505.641 239.845 508.745 233.607 509.376C227.37 509.99 225.495 509.011 217.649 508.38C209.918 507.882 201.441 507.633 186.611 506.388M128.998 500.528C148.572 501.408 171.88 505.01 186.594 506.371M129.014 500.528C109.555 499.664 87.2433 498.917 69.6591 500.909C52.0748 502.885 38.8536 510.737 23.5255 512.596M-22.4921 511.982C-13.8825 513.725 8.06458 514.472 23.5088 512.613M-28.2154 502.022C-22.2268 502.155 -31.2013 510.106 -22.4755 511.966M-28.232 502.022C-34.204 501.773 -51.1745 508.861 -58.5234 510.853C-65.8722 512.729 -67.0003 512.347 -72.6073 513.592M-72.5907 513.592C-78.3305 514.837 -81.9469 519.436 -92.5472 518.324C-103.264 517.195 -122.722 508.745 -136.557 506.753C-150.525 504.628 -156.497 504.396 -175.707 506.006C-194.917 507.616 -230.318 514.721 -251.767 516.083C-273.333 517.46 -291.78 514.472 -304.503 514.472C-317.227 514.339 -318.106 514.837 -328.325 515.584C-338.544 516.215 -355.995 520.565 -366.098 518.573C-376.068 516.697 -382.189 504.761 -388.294 503.765C-394.399 502.769 -395.659 511.235 -402.511 512.347C-409.246 513.476 -421.969 510.604 -429.318 510.488M-429.302 510.488C-436.667 510.355 -442.888 511.484 -446.637 511.6C-450.502 511.733 -445.393 512.231 -452.128 511.235C-458.747 510.355 -479.317 507.118 -486.666 506.006M-496.52 505.143C-486.052 501.291 -494.032 505.026 -486.666 506.023" stroke="white" stroke-miterlimit="10"/>
<path d="M255.272 507.832C256.94 507.832 258.292 506.479 258.292 504.81C258.292 503.142 256.94 501.789 255.272 501.789C253.605 501.789 252.253 503.142 252.253 504.81C252.253 506.479 253.605 507.832 255.272 507.832Z" stroke="white" stroke-miterlimit="10"/>
<path d="M129.628 619.256C128.633 620.003 126.128 622.111 124.137 623.854C122.014 625.597 118.895 629.697 117.153 629.946C115.411 630.063 114.051 625.597 113.669 624.966M113.669 624.983C113.288 624.236 115.527 626.726 115.162 625.846C114.914 624.966 113.172 620.252 111.927 619.87C110.683 619.488 107.813 623.721 107.813 623.472C107.813 623.09 127.621 618.874 111.795 618.243C96.0852 617.513 60.303 621.862 13.1906 619.123M13.207 619.123C-33.9055 616.5 -133.754 602.19 -170.78 602.19C-207.923 602.19 -200.458 614.01 -209.549 619.239C-218.656 624.468 -221.775 630.312 -225.507 633.433M-225.507 633.449C-229.123 636.554 -229.24 638.429 -231.363 638.048C-233.486 637.799 -238.33 632.686 -238.214 631.822M-238.231 631.822C-238.098 631.075 -231.131 633.184 -230.749 633.316C-230.368 633.449 -235.361 631.955 -236.356 632.32M-236.224 635.674C-236.472 636.305 -237.219 632.686 -236.34 632.32M-236.24 635.674C-235.991 635.176 -214.177 630.943 -234.614 628.701C-255.185 626.577 -315.518 627.207 -359.263 622.725M-497.117 601.576C-466.195 599.584 -403.008 618.26 -359.247 622.725" stroke="white" stroke-miterlimit="10"/>
<path d="M129.728 622.244C131.395 622.244 132.747 620.891 132.747 619.223C132.747 617.554 131.395 616.201 129.728 616.201C128.06 616.201 126.708 617.554 126.708 619.223C126.708 620.891 128.06 622.244 129.728 622.244Z" stroke="white" stroke-miterlimit="10"/>
<path d="M268.643 635.658C268.759 635.542 269.638 635.907 269.887 635.293C270.136 634.678 278.994 632.188 270.136 631.939C261.277 631.69 256.417 638.032 216.521 633.931M30.891 607.088C70.2896 610.823 176.757 629.831 216.537 633.931M30.8744 607.088C-8.52426 603.37 -5.77048 607.719 -19.4895 611.57C-33.1919 615.422 -43.4273 626.345 -51.2739 630.329C-59.0043 634.313 -65.3577 635.176 -66.2369 635.425C-66.9834 635.807 -56.267 631.707 -55.8854 632.072C-55.6366 632.454 -62.9854 637.052 -64.3623 637.667C-65.7392 638.414 -63.8648 636.289 -64.1137 636.421M-65.872 638.414C-66.1208 638.281 -64.3791 636.554 -64.1303 636.421M-63.0021 637.285C-36.941 639.277 -65.7393 638.53 -65.872 638.397M-62.9855 637.285C-89.0467 635.176 -172.837 628.968 -222.455 626.229C-272.205 623.622 -334.795 620.136 -361.221 621.132C-387.78 622.128 -374.94 629.582 -381.675 632.437M-401.863 638.032C-396.373 636.289 -388.526 635.293 -381.658 632.437M-414.969 642.265C-412.348 642.398 -407.487 639.659 -401.88 638.032M-414.952 642.248C-417.457 642.132 -416.329 637.036 -417.324 637.285C-418.452 637.418 -420.559 642.63 -421.19 643.377C-421.936 644.24 -421.936 641.999 -421.687 642.132M-419.829 644.489C-420.708 644.24 -421.455 642.248 -421.704 642.132M-416.827 643.012C-414.703 642.763 -419.066 644.622 -419.813 644.506M-432.039 645.485C-411.087 647.843 -418.817 643.128 -416.827 642.995" stroke="white" stroke-miterlimit="10"/>
<path d="M268.742 638.712C270.41 638.712 271.762 637.359 271.762 635.69C271.762 634.022 270.41 632.669 268.742 632.669C267.075 632.669 265.723 634.022 265.723 635.69C265.723 637.359 267.075 638.712 268.742 638.712Z" stroke="white" stroke-miterlimit="10"/>
<path d="M104.944 642.796C105.939 639.808 106.072 634.462 106.32 632.719M104.927 642.796C103.932 645.668 101.195 649.901 100.067 650.266C98.8225 650.764 96.9479 646.033 97.5783 645.535C98.1921 644.904 103.434 647.527 103.683 646.896C103.932 646.398 100.564 641.8 99.0711 641.8M99.0877 641.8C97.7109 641.916 93.9619 647.262 95.09 647.394C96.3341 647.643 123.125 644.041 106.304 643.045M-5.87023 640.804C44.3609 647.527 89.4827 641.916 106.32 643.045M-5.88663 640.787C-56.1178 634.081 -156.962 604.83 -195.1 602.589C-233.238 600.481 -225.889 619.771 -234.482 627.855M-246.21 651.13C-244.087 645.651 -242.975 635.94 -234.498 627.855M-246.194 651.13C-248.201 656.492 -245.082 660.592 -247.073 660.094C-249.08 659.596 -258.419 648.639 -257.922 648.141C-257.424 647.643 -245.828 655.479 -243.838 656.973M-246.326 657.355C-245.945 656.99 -241.963 658.484 -243.838 656.99M-245.961 658.716C-246.21 659.098 -246.708 657.604 -246.343 657.338M-244.452 655.114C-222.637 658.849 -245.58 658.351 -245.945 658.716M-244.452 655.097C-266.382 651.495 -331.211 645.768 -377.329 636.687C-423.33 627.606 -488.142 598.24 -520.806 600.597" stroke="white" stroke-miterlimit="10"/>
<path d="M106.404 635.707C108.071 635.707 109.423 634.354 109.423 632.685C109.423 631.017 108.071 629.664 106.404 629.664C104.736 629.664 103.385 631.017 103.385 632.685C103.385 634.354 104.736 635.707 106.404 635.707Z" stroke="white" stroke-miterlimit="10"/>
<path d="M259.668 656.741C258.292 656.873 257.429 656.126 256.931 655.994M259.668 656.724C261.161 656.608 274.499 655.363 265.524 654.865C256.55 654.5 249.433 661.223 205.555 654.251C161.661 647.295 44.0958 618.924 2.20888 613.081C-39.8108 607.354 -33.7062 614.077 -46.0484 619.671C-58.5066 625.266 -66.8675 640.572 -72.2257 646.913C-77.5839 653.138 -78.0981 656.243 -78.2142 657.488M-78.2142 657.471C-78.3304 658.6 -72.9721 653.122 -72.9721 653.62C-72.9721 654.234 -77.5837 659.961 -78.0814 660.957M-76.4557 659.729C-76.5718 659.48 -78.6952 661.97 -78.0814 660.974M-76.4723 659.729C-76.4723 659.978 -79.8398 662.833 -77.4676 662.584C-75.0954 662.335 -33.9549 660.725 -62.5044 658.235M-248.134 648.025C-194.519 654.118 -90.9212 655.861 -62.4878 658.218M-248.151 648.025C-301.882 641.933 -358.235 622.161 -384.296 621.531C-410.357 620.784 -397.882 637.949 -404.617 643.792M-424.441 656.492C-420.078 653.006 -411.22 649.652 -404.617 643.809M-431.16 665.074C-429.915 664.576 -428.92 659.978 -424.424 656.492M-431.923 659.098C-431.425 658.6 -432.42 665.439 -431.176 665.074M-434.029 668.062C-433.399 666.701 -432.404 659.596 -431.906 659.098M-435.788 667.066C-435.788 666.934 -434.66 669.424 -434.046 668.062M-435.771 667.05C-435.771 667.299 -435.406 668.926 -434.029 669.291C-432.652 669.556 -426.929 669.042 -427.294 668.926M-436.534 668.179C-413.725 671.283 -427.676 668.809 -427.311 668.926" stroke="white" stroke-miterlimit="10"/>
<path d="M257.031 659.048C258.698 659.048 260.05 657.695 260.05 656.026C260.05 654.358 258.698 653.005 257.031 653.005C255.363 653.005 254.011 654.358 254.011 656.026C254.011 657.695 255.363 659.048 257.031 659.048Z" stroke="white" stroke-miterlimit="10"/>
<path d="M168.894 653.486C168.778 653.353 168.396 652.855 168.396 652.241M168.529 649.635C170.519 650.498 168.28 651.627 168.413 652.241M168.512 649.635C166.522 648.639 155.556 646.896 156.303 646.53C156.933 646.032 170.768 647.277 172.759 647.028M172.759 647.045C174.634 646.663 169.773 645.418 167.65 644.555C165.526 643.808 160.915 645.418 159.67 642.314M160.052 625.315C176.757 625.929 158.426 639.093 159.67 642.33M160.052 625.298C143.48 624.684 111.198 634.113 59.8385 638.462C8.59541 642.945 -108.074 648.523 -147.456 651.627C-186.722 654.864 -171.013 656.341 -176.006 657.835C-180.999 659.33 -176.006 660.326 -177.383 660.94C-178.743 661.421 -182.243 662.052 -184.483 661.305M-190.471 656.225C-192.213 657.586 -186.606 660.442 -184.483 661.322M-173.634 652.988C-175.757 653.602 -188.713 654.847 -190.455 656.209M-178.129 652.623C-176.752 652.872 -171.643 652.49 -173.65 652.988M-178.113 652.623C-179.49 652.49 -181.862 653.868 -181.862 651.876C-181.862 649.768 -157.177 640.82 -178.245 640.455C-199.313 639.957 -257.408 646.779 -308.385 649.021C-359.496 651.378 -450.734 651.262 -484.509 653.868C-518.284 656.474 -507.203 662.799 -511.185 664.791C-515.182 666.899 -509.575 666.036 -508.696 666.285M-508.68 666.285C-507.684 666.65 -505.942 667.148 -505.694 666.65C-505.329 666.169 -505.196 664.426 -506.573 663.43M-513.922 661.305C-514.054 661.554 -507.933 662.55 -506.573 663.413M-513.922 661.322C-513.789 661.073 -506.822 662.185 -505.694 661.936C-504.582 661.687 -506.573 660.807 -507.319 660.193C-508.066 659.579 -508.563 659.33 -510.305 658.334M-510.322 658.334C-511.931 657.47 -516.675 655.478 -517.671 654.482C-518.533 653.619 -514.801 654.98 -516.045 652.872C-517.422 650.631 -489.387 643.808 -525.401 641.202" stroke="white" stroke-miterlimit="10"/>
<path d="M168.993 656.557C170.661 656.557 172.013 655.205 172.013 653.536C172.013 651.867 170.661 650.515 168.993 650.515C167.326 650.515 165.974 651.867 165.974 653.536C165.974 655.205 167.326 656.557 168.993 656.557Z" stroke="white" stroke-miterlimit="10"/>
<path d="M317.895 658.268C318.774 659.878 319.521 658.517 319.77 658.517M317.895 658.284C316.883 656.674 322.623 650.482 314.146 649.237C305.669 647.992 309.534 649.237 267.017 650.847M267.017 650.83C224.516 652.441 105.325 656.774 59.1915 658.517C13.0578 660.243 1.82709 660.874 -9.63583 661.239C-21.0988 661.621 -8.88933 661.372 -9.63583 660.874M-14.3638 658.019C-13.4846 658.766 -10.4984 660.243 -9.61923 660.874M-14.3638 658.035C-15.3592 657.288 -15.608 656.043 -15.3591 656.292C-15.1103 656.657 -13.3685 659.762 -12.8708 660.127M-12.8542 660.127C-12.4892 660.376 -12.6054 658.766 -12.4893 658.268C-12.4893 657.77 -9.75211 659.513 -12.4893 657.155M-12.4893 657.172C-15.2264 654.931 -0.777349 643.908 -28.6965 644.406C-56.6322 645.02 -127.185 656.408 -180.302 660.625C-233.287 664.709 -315.701 667.929 -347.12 669.29C-378.54 670.536 -365.7 668.427 -368.819 668.178M-365.567 667.564C-365.816 668.062 -371.805 667.929 -368.802 668.178M-367.326 665.456C-365.451 666.203 -365.335 667.199 -365.584 667.564M-367.309 665.456C-369.183 664.709 -376.549 663.347 -376.665 663.098C-376.798 662.849 -369.565 663.845 -368.188 663.845C-366.811 663.978 -368.437 663.347 -368.437 663.231C-368.437 663.098 -367.939 663.845 -367.939 663.231M-368.935 659.629C-366.065 660.243 -368.055 662.6 -367.939 663.215M-385.026 659.147C-361.586 658.4 -371.805 658.898 -368.951 659.645M-509.692 664.592C-465.814 662.617 -408.449 660.011 -385.009 659.147" stroke="white" stroke-miterlimit="10"/>
<path d="M319.87 661.538C321.537 661.538 322.889 660.185 322.889 658.516C322.889 656.848 321.537 655.495 319.87 655.495C318.202 655.495 316.85 656.848 316.85 658.516C316.85 660.185 318.202 661.538 319.87 661.538Z" stroke="white" stroke-miterlimit="10"/>
</svg>
